<svg width="30" height="30" viewBox="0 0 30 30" fill="none" xmlns="http://www.w3.org/2000/svg">
<path fill-rule="evenodd" clip-rule="evenodd" d="M1.8 8.4V21.6C1.8 25.2451 4.75492 28.2 8.4 28.2H21.6C25.2451 28.2 28.2 25.2451 28.2 21.6V8.4C28.2 4.75492 25.2451 1.8 21.6 1.8H8.4C4.75492 1.8 1.8 4.75492 1.8 8.4ZM0 8.4V21.6C0 26.2392 3.76081 30 8.4 30H21.6C26.2392 30 30 26.2392 30 21.6V8.4C30 3.76081 26.2392 0 21.6 0H8.4C3.76081 0 0 3.76081 0 8.4Z" fill="#FCFCFC"/>
<path fill-rule="evenodd" clip-rule="evenodd" d="M19.8 15C19.8 12.349 17.651 10.2 15 10.2C12.349 10.2 10.2 12.349 10.2 15C10.2 17.651 12.349 19.8 15 19.8C17.651 19.8 19.8 17.651 19.8 15ZM21.6 15C21.6 11.3549 18.6451 8.4 15 8.4C11.3549 8.4 8.4 11.3549 8.4 15C8.4 18.6451 11.3549 21.6 15 21.6C18.6451 21.6 21.6 18.6451 21.6 15Z" fill="#FCFCFC"/>
<path fill-rule="evenodd" clip-rule="evenodd" d="M22.2 7.2C22.2 7.53137 22.4686 7.8 22.8 7.8C23.1314 7.8 23.4 7.53137 23.4 7.2C23.4 6.86863 23.1314 6.6 22.8 6.6C22.4686 6.6 22.2 6.86863 22.2 7.2ZM24 7.2C24 6.53726 23.4627 6 22.8 6C22.1373 6 21.6 6.53726 21.6 7.2C21.6 7.86274 22.1373 8.4 22.8 8.4C23.4627 8.4 24 7.86274 24 7.2Z" fill="#FCFCFC"/>
</svg>
