<svg width="30" height="30" viewBox="0 0 30 30" fill="none" xmlns="http://www.w3.org/2000/svg">
<path d="M17.7476 0.765625H12.2182C6.42667 0.765625 1.71484 5.38557 1.71484 11.0644V15.9495C1.71484 20.1785 4.36459 23.9792 8.34888 25.5271V28.694C8.34888 28.9087 8.47769 29.1028 8.67781 29.1896C8.74968 29.221 8.82597 29.2362 8.90171 29.2362C9.03605 29.2362 9.16929 29.188 9.27267 29.0958L12.4786 26.2482H17.7476C23.5392 26.2482 28.251 21.6283 28.251 15.9495V11.0644C28.251 5.38557 23.5392 0.765625 17.7476 0.765625Z" stroke="#FCFCFC" stroke-width="1.5"/>
<path d="M22.2889 17.2983L18.8912 15.1339C18.5197 14.897 18.0774 14.8167 17.6445 14.9045C17.2111 14.994 16.8385 15.245 16.5969 15.611L16.4371 15.8517C14.9666 15.3752 13.3451 14.7663 12.3743 12.0104L12.7763 11.6677C13.4662 11.0794 13.5386 10.0504 12.9388 9.37265L10.2808 6.37384C10.0806 6.14775 9.73124 6.12443 9.5007 6.32016L7.83169 7.74285C6.36778 8.99095 7.05164 10.8371 7.27664 11.4438C7.2866 11.4709 7.29876 11.4969 7.31313 11.5224C7.37118 11.6243 8.75714 14.0501 10.9956 16.286C13.2429 18.5312 17.3001 20.6045 17.4245 20.6647C17.8878 20.9597 18.4091 21.1012 18.9249 21.1012C19.8304 21.1012 20.7183 20.6658 21.2479 19.8677L22.452 18.0492C22.6178 17.7971 22.5449 17.4615 22.2889 17.2983Z" stroke="#FCFCFC" stroke-width="1.5"/>
<path d="M15.6709 10.5534C16.7517 10.5534 18.0894 11.4431 18.0894 12.9659M15.3945 7.81517C17.6362 7.81517 20.5409 9.93482 20.6212 12.9659M15.3945 4.89062C21.1744 4.89062 23.1342 9.03245 23.1342 12.9659" stroke="#FCFCFC" stroke-width="1.5" stroke-linecap="round"/>
</svg>
