<svg width="30" height="30" viewBox="0 0 30 30" fill="none" xmlns="http://www.w3.org/2000/svg">
<path d="M19.8062 12.7005L13.1992 9.18941C12.8193 8.98753 12.3703 8.99507 11.9979 9.20936C11.6253 9.42387 11.4031 9.80282 11.4031 10.2234V17.1853C11.4031 17.604 11.624 17.9822 11.9941 18.197C12.1873 18.3091 12.4016 18.3654 12.6163 18.3654C12.8129 18.3654 13.0101 18.3182 13.1915 18.2233L19.7987 14.7727C20.1909 14.5678 20.4357 14.1717 20.4375 13.739C20.4391 13.3062 20.1973 12.9084 19.8062 12.7005ZM13.1556 16.3096V11.1063L18.0936 13.7305L13.1556 16.3096Z" fill="#FCFCFC"/>
<path d="M29.0365 8.19241L29.0352 8.17912C29.0106 7.94532 28.7661 5.86579 27.7568 4.80807C26.5901 3.56398 25.2675 3.41285 24.6314 3.34038C24.5787 3.3344 24.5305 3.32886 24.4874 3.3231L24.4367 3.31778C20.6029 3.03856 14.8129 3.00044 14.755 3.00022L14.7499 3L14.7448 3.00022C14.6868 3.00044 8.89692 3.03856 5.02857 3.31778L4.97747 3.3231C4.93631 3.32864 4.89096 3.33374 4.84162 3.3395C4.21282 3.41218 2.90435 3.56354 1.73437 4.85261C0.773037 5.89903 0.495146 7.93402 0.466605 8.16272L0.463286 8.19241C0.454657 8.2897 0.25 10.6057 0.25 12.9308V15.1043C0.25 17.4293 0.454657 19.7453 0.463286 19.8428L0.464835 19.8574C0.489393 20.0875 0.733654 22.1289 1.73835 23.1871C2.83531 24.3895 4.22234 24.5486 4.96839 24.6341C5.08632 24.6476 5.18787 24.6592 5.25713 24.6714L5.32416 24.6807C7.53778 24.8916 14.4782 24.9956 14.7725 24.9998L14.7813 25L14.7902 24.9998C14.8481 24.9996 20.6378 24.9614 24.4716 24.6822L24.5223 24.6769C24.5708 24.6705 24.6252 24.6647 24.6849 24.6585C25.3102 24.592 26.6116 24.454 27.7654 23.1824C28.7267 22.1358 29.0049 20.1008 29.0332 19.8723L29.0365 19.8426C29.0451 19.7451 29.25 17.4293 29.25 15.1043V12.9308C29.2498 10.6057 29.0451 8.28992 29.0365 8.19241ZM27.5504 15.1043C27.5504 17.2563 27.3627 19.4725 27.345 19.676C27.2729 20.2364 26.9797 21.5239 26.5114 22.0338C25.7892 22.8296 25.0473 22.9085 24.5057 22.9659C24.4402 22.9728 24.3796 22.9794 24.3247 22.9863C20.6166 23.2549 15.0453 23.2961 14.7886 23.2976C14.5008 23.2934 7.6619 23.1886 5.51577 22.9889C5.40581 22.971 5.28699 22.9573 5.16177 22.9431C4.52656 22.8702 3.65704 22.7704 2.98842 22.0338L2.97271 22.017C2.51251 21.5368 2.22776 20.3328 2.15541 19.6826C2.14192 19.5288 1.94943 17.2864 1.94943 15.1043V12.9308C1.94943 10.7812 2.13661 8.56737 2.15475 8.35972C2.24081 7.69956 2.5395 6.49005 2.98842 6.00119C3.73271 5.18125 4.51748 5.09039 5.03654 5.03034C5.0861 5.02458 5.13234 5.01926 5.17504 5.01372C8.93719 4.74381 14.5486 4.70369 14.7499 4.70214C14.9512 4.70347 20.5606 4.74381 24.2893 5.01372C24.3351 5.01948 24.3851 5.02524 24.4389 5.03145C24.9728 5.09239 25.7797 5.18458 26.5202 5.9757L26.5271 5.98302C26.9873 6.46323 27.272 7.68826 27.3444 8.35152C27.3572 8.49668 27.5504 10.744 27.5504 12.9308V15.1043Z" fill="#FCFCFC"/>
</svg>
