<svg width="61" height="60" viewBox="0 0 61 60" fill="none" xmlns="http://www.w3.org/2000/svg">
<path d="M16.0446 60C16.264 60 16.4853 59.9956 16.7061 59.9876L59.0786 59.9885C59.5893 59.9885 60.0034 59.5819 60.0034 59.0794V10.7296C60.0034 10.2271 59.5893 9.82053 59.0786 9.82053L23.5119 9.81963C22.9097 4.32966 17.8472 0 11.7892 0C8.65827 0 5.7052 1.12658 3.47099 3.17289C1.2327 5.23785 0 7.98372 0 10.9036V45.7007C0 45.7087 0.00440246 45.7153 0.00462828 45.7233C0.00491052 45.73 0.00423325 45.7366 0.0045154 45.7433C0.36078 53.727 7.50549 60.0009 16.0446 60ZM58.1538 58.1703H16.6704C8.83076 58.4562 2.17326 52.8561 1.85222 45.6634C1.73617 43.064 2.69118 40.5454 4.54068 38.571C6.55952 36.4164 9.49362 35.1131 12.5903 34.9959C17.4254 34.8122 21.5308 38.2629 21.7285 42.6867C21.799 44.2625 21.2192 45.7912 20.0958 46.9897C18.8635 48.3054 17.07 49.1017 15.1762 49.1736C12.2692 49.2855 9.79164 47.2152 9.67288 44.5634C9.63179 43.6428 9.9718 42.7479 10.6306 42.0448C11.3598 41.2663 12.4228 40.7957 13.5462 40.7531C15.2494 40.675 16.6555 41.8735 16.7232 43.3916C16.7458 43.8932 16.5593 44.3814 16.1985 44.7667C15.7912 45.2009 15.1952 45.4645 14.5635 45.4885C14.0533 45.508 13.6555 45.9297 13.6753 46.4313C13.6947 46.9329 14.1115 47.3617 14.6349 47.3049C15.7551 47.2623 16.8208 46.7864 17.559 45.9981C18.2558 45.2541 18.6152 44.2998 18.5709 43.3117C18.4589 40.7984 16.1611 38.8275 13.4753 38.9367C11.8629 38.998 10.3303 39.6816 9.27011 40.8135C8.27582 41.8753 7.76242 43.2353 7.82518 44.6433C7.98819 48.2903 11.3436 51.1374 15.2471 50.99C17.6299 50.8995 19.893 49.8909 21.4563 48.2219C22.9032 46.6772 23.6529 44.7038 23.5759 42.6593C23.576 42.6549 23.5785 42.6512 23.5785 42.6467V11.6378L58.1538 11.6387V58.1703ZM1.84951 10.9036C1.84951 8.49064 2.87495 6.21617 4.73394 4.501C6.62228 2.77073 9.12787 1.81815 11.7892 1.81815C17.1706 1.81815 21.6275 5.82061 21.7284 10.7248L21.7276 10.7287C21.7276 10.731 21.729 10.733 21.729 10.7353V37.4764C19.7312 34.7715 16.3265 33.0415 12.5189 33.1796C8.93416 33.3145 5.53001 34.8308 3.18019 37.3396C2.67752 37.8762 2.23777 38.4507 1.84951 39.0496V10.9036Z" fill="#A07F5D"/>
</svg>
