<svg width="41" height="40" viewBox="0 0 41 40" fill="none" xmlns="http://www.w3.org/2000/svg">
<path d="M39.4237 27.9196C38.5959 26.8158 37.4369 26.0708 36.1675 25.7948V24.2771C36.1675 21.4624 36.2779 18.6477 36.3883 15.833C36.4435 14.5084 36.2779 12.77 35.3121 11.197C34.3738 9.62413 32.8561 8.60311 30.8417 8.16159C26.7852 7.22336 24.3844 8.07881 22.4528 8.74109C21.349 9.12742 20.4108 9.45856 19.2242 9.45856C13.9259 9.45856 8.29654 2.97372 8.24135 2.91853L7.19274 1.67676L5.95096 2.69777C2.52918 5.59525 0.680311 8.6859 0.514741 11.9145C0.34917 14.8396 1.61854 16.992 2.30842 17.9578V33.1075C2.30842 36.3085 4.90235 38.9025 8.10338 38.9025H30.3726C32.1387 38.9025 33.7668 38.1022 34.8706 36.75H34.8982C36.1123 36.75 37.2989 36.3913 38.2647 35.6462C39.8377 34.4597 40.6655 32.5832 40.4724 30.624C40.362 29.6581 40.0032 28.7199 39.4237 27.9196ZM23.3082 25.1325V35.6462H8.10338C6.72362 35.6462 5.59223 34.5149 5.59223 33.1351V17.4059V16.7712L5.15071 16.3021C5.09552 16.2193 3.60538 14.5912 3.77095 12.0801C3.90893 10.1484 4.95754 8.21678 6.91679 6.28513C9.0968 8.46514 14.0639 12.7424 19.2242 12.7424C20.9627 12.7424 22.2596 12.3008 23.529 11.8593C25.2951 11.2522 26.9784 10.6727 30.0966 11.3902C31.228 11.6386 32.0007 12.1629 32.4698 12.9355C33.0217 13.8462 33.0769 15.0604 33.0217 15.971C32.8837 17.7647 32.8285 19.5583 32.8285 21.3796C32.8009 21.352 32.7733 21.2968 32.7181 21.2692C31.6695 20.2206 30.2898 19.6411 28.7997 19.6411C27.3095 19.6411 25.9298 20.2206 24.8812 21.2692C23.8877 22.2351 23.3082 23.6424 23.3082 25.1325ZM36.5539 32.804C36.1123 33.2455 35.5604 33.4662 34.9533 33.4662H26.592V25.1049C26.592 24.4979 26.8404 23.9184 27.2543 23.5044C27.6959 23.0629 28.2478 22.8422 28.8548 22.8422C29.4619 22.8422 30.0414 23.0905 30.4554 23.5044C30.8969 23.946 31.1176 24.4979 31.1176 25.1049V28.9131H34.9258C35.5328 28.9131 36.1123 29.1614 36.5263 29.5753C36.9678 30.0169 37.1885 30.5688 37.1885 31.1759C37.2161 31.8105 36.9678 32.39 36.5539 32.804ZM13.4016 17.8475H12.9049C12.2702 17.8475 11.7459 18.3718 11.7459 19.0064V23.5872C11.7459 24.2219 12.2702 24.7462 12.9049 24.7462H13.4016C14.0363 24.7462 14.5606 24.2219 14.5606 23.5872V19.0064C14.5882 18.3718 14.0639 17.8475 13.4016 17.8475ZM17.2649 26.3743C16.3543 26.3743 15.6368 27.1194 15.6368 28.0024C15.6368 28.7475 16.1335 29.3822 16.7958 29.5753V30.5688C16.1059 30.7619 15.6368 31.3966 15.6368 32.1417C15.6368 33.0523 16.3819 33.7698 17.2649 33.7698C18.8103 33.7698 20.0796 32.5004 20.0796 30.9551V29.189C20.0796 27.6437 18.8103 26.3743 17.2649 26.3743ZM31.1176 16.4401C31.09 15.5295 30.345 14.812 29.4619 14.8396C26.2333 14.8948 23.5566 15.8606 21.5422 17.6819C20.8799 18.289 20.8247 19.3376 21.4318 19.9999C21.8181 20.4138 22.3976 20.607 22.9219 20.5242C23.2255 20.469 23.5014 20.331 23.7498 20.1102C25.1847 18.8133 27.0612 18.151 29.5171 18.0958C30.4278 18.0958 31.1452 17.3507 31.1176 16.4401Z" stroke="#C5A57C" stroke-miterlimit="10"/>
</svg>
