<svg width="251" height="59" viewBox="0 0 251 59" fill="none" xmlns="http://www.w3.org/2000/svg">
<path d="M0.5 29.5H65.5" stroke="#A6AFB8" stroke-opacity="0.5"/>
<path d="M153.886 40.9449C152.644 39.2892 150.905 38.1716 149.001 37.7577V35.4811C149.001 31.259 149.167 27.037 149.332 22.8149C149.415 20.8281 149.167 18.2204 147.718 15.861C146.311 13.5016 144.034 11.9701 141.013 11.3078C134.928 9.90047 131.327 11.1836 128.429 12.1771C126.773 12.7566 125.366 13.2533 123.586 13.2533C115.639 13.2533 107.195 3.52602 107.112 3.44323L105.539 1.58057L103.676 3.11209C98.5438 7.45831 95.7705 12.0943 95.5221 16.9372C95.2738 21.3248 97.1778 24.5534 98.2126 26.0022V48.7267C98.2126 53.5282 102.104 57.4191 106.905 57.4191H140.309C142.958 57.4191 145.4 56.2187 147.056 54.1905H147.097C148.919 54.1905 150.698 53.6524 152.147 52.5348C154.506 50.7549 155.748 47.9402 155.459 45.0014C155.293 43.5526 154.755 42.1453 153.886 40.9449ZM129.712 36.7642V52.5348H106.905C104.835 52.5348 103.138 50.8377 103.138 48.7681V25.1743V24.2223L102.476 23.5186C102.393 23.3944 100.158 20.9523 100.406 17.1856C100.613 14.2881 102.186 11.3906 105.125 8.49312C108.395 11.7631 115.846 18.179 123.586 18.179C126.194 18.179 128.139 17.5167 130.044 16.8544C132.693 15.9438 135.218 15.0745 139.895 16.1507C141.592 16.5233 142.751 17.3097 143.455 18.4687C144.283 19.8347 144.365 21.656 144.283 23.0219C144.076 25.7124 143.993 28.4029 143.993 31.1349C143.951 31.0935 143.91 31.0107 143.827 30.9693C142.254 29.3964 140.185 28.5271 137.949 28.5271C135.714 28.5271 133.645 29.3964 132.072 30.9693C130.582 32.418 129.712 34.529 129.712 36.7642ZM149.581 48.2714C148.919 48.9337 148.091 49.2648 147.18 49.2648H134.638V36.7228C134.638 35.8122 135.011 34.943 135.631 34.3221C136.294 33.6598 137.122 33.3287 138.032 33.3287C138.943 33.3287 139.812 33.7012 140.433 34.3221C141.095 34.9844 141.426 35.8122 141.426 36.7228V42.435H147.139C148.049 42.435 148.919 42.8076 149.539 43.4284C150.202 44.0907 150.533 44.9186 150.533 45.8292C150.574 46.7812 150.202 47.6505 149.581 48.2714ZM114.852 25.8366H114.107C113.155 25.8366 112.369 26.6231 112.369 27.5751V34.4463C112.369 35.3983 113.155 36.1847 114.107 36.1847H114.852C115.804 36.1847 116.591 35.3983 116.591 34.4463V27.5751C116.632 26.6231 115.846 25.8366 114.852 25.8366ZM120.647 38.6269C119.281 38.6269 118.205 39.7445 118.205 41.0691C118.205 42.1867 118.95 43.1387 119.944 43.4284V44.9186C118.909 45.2083 118.205 46.1603 118.205 47.2779C118.205 48.6439 119.323 49.7201 120.647 49.7201C122.965 49.7201 124.869 47.8161 124.869 45.4981V42.8489C124.869 40.531 122.965 38.6269 120.647 38.6269ZM141.426 23.7256C141.385 22.3596 140.267 21.2834 138.943 21.3248C134.1 21.4076 130.085 22.8563 127.063 25.5883C126.07 26.4989 125.987 28.0718 126.898 29.0652C127.477 29.6861 128.346 29.9759 129.133 29.8517C129.588 29.7689 130.002 29.5619 130.375 29.2308C132.527 27.2853 135.342 26.2919 139.026 26.2091C140.392 26.2091 141.468 25.0915 141.426 23.7256Z" stroke="#C5A57C" stroke-width="1.5" stroke-miterlimit="10"/>
<path d="M185.5 29.5H250.5" stroke="#A6AFB8" stroke-opacity="0.5"/>
</svg>
