<svg width="20" height="21" viewBox="0 0 20 21" fill="none" xmlns="http://www.w3.org/2000/svg">
<path d="M14 5.29602H14.75V4.54602V1.79002V1.14352L14.1106 1.04822C13.8171 1.00448 12.9131 0.917969 11.8722 0.917969C10.6419 0.917969 9.54015 1.34243 8.75255 2.21157C7.97195 3.07299 7.57381 4.28902 7.57381 5.74058V7.41797H6H5.25V8.16797V11.249V11.999H6H7.57381V19.0013V19.7513H8.32381H11.1729H11.9229V19.0013V11.9997H13.4027H14.0715L14.1478 11.3353L14.5018 8.25429L14.5978 7.41869H13.7567H11.9222V6.04664C11.9226 5.62384 11.9847 5.46777 12.0258 5.41326C12.0258 5.41321 12.0259 5.4131 12.026 5.41293C12.0307 5.4057 12.1028 5.29602 12.5395 5.29602H14Z" stroke="#FCFCFC" stroke-width="1.5"/>
</svg>
