<svg width="20" height="20" viewBox="0 0 20 20" fill="none" xmlns="http://www.w3.org/2000/svg">
<path d="M1.22949 18.9999H5.08697V6.85487H1.22949V18.9999Z" stroke="#FCFCFC" stroke-width="1.3"/>
<path d="M3.13274 5.19722H3.15823C4.504 5.19722 5.34074 4.26428 5.34074 3.09819C5.31549 1.9065 4.504 1 3.18349 1C1.86326 1 1 1.9065 1 3.09819C1 4.26428 1.83874 5.19722 3.13274 5.19722Z" stroke="#FCFCFC" stroke-width="1.3"/>
<path d="M15.1415 18.9999H19V12.0354C19 8.30519 17.0967 6.5698 14.5575 6.5698C12.5078 6.5698 11.5927 7.75025 11.08 8.5759V6.85493H7.22074C7.27246 7.99429 7.22074 19 7.22074 19H11.08V12.2172C11.08 11.8532 11.1065 11.4924 11.208 11.2329C11.4872 10.5064 12.121 9.75629 13.1875 9.75629C14.584 9.75629 15.1415 10.8703 15.1415 12.5023V18.9999Z" stroke="#FCFCFC" stroke-width="1.3"/>
</svg>
