<svg width="24" height="22" viewBox="0 0 24 22" fill="none" xmlns="http://www.w3.org/2000/svg">
<path fill-rule="evenodd" clip-rule="evenodd" d="M12.1035 1.4833C12.1035 1.33719 11.9947 1.21875 11.8605 1.21875C11.7264 1.21875 11.6176 1.33719 11.6176 1.4833V4.57769C11.6176 4.58546 11.6179 4.59314 11.6185 4.60073C10.0726 4.62039 8.67302 5.00856 7.42995 5.60243L6.15407 3.38811C6.10746 3.30606 6.02303 3.25624 5.93217 3.25703C5.88652 3.25726 5.84175 3.27024 5.80253 3.29481C5.68606 3.36987 5.64674 3.52845 5.71371 3.65378L6.97042 5.83485C5.83479 6.44131 4.8396 7.21272 3.99342 8.01235L2.13954 6.36586C2.0892 6.32111 2.02255 6.29527 1.95262 6.29354V6.29352C1.87482 6.28942 1.79891 6.31558 1.74329 6.36585C1.69025 6.41396 1.66045 6.4798 1.66045 6.54834C1.66045 6.61688 1.69025 6.68272 1.74329 6.73082V6.73093L3.60873 8.38769C3.53846 8.45846 3.46934 8.52927 3.4014 8.60005C2.44675 9.59447 1.7156 10.588 1.22306 11.3328C0.976642 11.7054 0.789554 12.0163 0.663725 12.2348C0.600801 12.344 0.553169 12.4302 0.521071 12.4894C0.505021 12.519 0.492852 12.5419 0.484595 12.5576L0.475146 12.5757L0.472628 12.5806L0.471922 12.5819C0.436668 12.6508 0.436331 12.7329 0.471585 12.8018L0.472628 12.8038L0.475146 12.8087L0.484595 12.8267C0.492852 12.8424 0.505021 12.8653 0.521071 12.8949C0.553169 12.9542 0.600801 13.0403 0.663725 13.1496C0.789554 13.368 0.976642 13.679 1.22306 14.0516C1.7156 14.7963 2.44675 15.7899 3.4014 16.7843C5.30657 18.7689 8.12938 20.7844 11.7418 20.7844C15.3543 20.7844 18.1771 18.7689 20.0823 16.7843C21.0369 15.7899 21.768 14.7963 22.2606 14.0516C22.507 13.679 22.6941 13.368 22.8199 13.1496C22.8828 13.0403 22.9305 12.9542 22.9626 12.8949C22.9786 12.8653 22.9908 12.8424 22.9991 12.8267L23.0085 12.8087L23.011 12.8038L23.0119 12.802C23.0472 12.7331 23.0472 12.6512 23.0119 12.5823L23.011 12.5806L23.0085 12.5757L22.9991 12.5576C22.9908 12.5419 22.9786 12.519 22.9626 12.4894C22.9305 12.4302 22.8828 12.344 22.8199 12.2348C22.6941 12.0163 22.507 11.7054 22.2606 11.3328C21.768 10.588 21.0369 9.59447 20.0823 8.60005C19.9288 8.44023 19.7694 8.28021 19.6042 8.12106L21.2632 6.48789C21.311 6.43961 21.3379 6.3738 21.3379 6.30517C21.3379 6.23643 21.311 6.17062 21.2632 6.12234C21.2157 6.07136 21.1498 6.04268 21.0809 6.04311C21.0177 6.04484 20.9575 6.07071 20.912 6.11553L19.2298 7.77155C18.393 7.0146 17.4211 6.29597 16.3215 5.73476L17.4168 3.78159C17.4832 3.6573 17.4444 3.50003 17.3289 3.42558C17.2899 3.40121 17.2455 3.38835 17.2002 3.38813L17.2002 3.38814C17.1096 3.38669 17.025 3.43621 16.9785 3.51815L15.8577 5.51113C14.7288 4.9984 13.4744 4.65781 12.1021 4.60665C12.103 4.59714 12.1035 4.58748 12.1035 4.57769V1.4833ZM23.0119 12.5823L22.7956 12.6922C23.0121 12.5826 23.0119 12.5823 23.0119 12.5823ZM22.7956 12.6922L23.0119 12.802C23.0119 12.802 23.0121 12.8018 22.7956 12.6922ZM0.688084 12.6922L0.471922 12.5819C0.471922 12.5819 0.471585 12.5826 0.688084 12.6922ZM0.96319 12.6922C0.992812 12.7464 1.03358 12.8196 1.08535 12.9095C1.20682 13.1203 1.38871 13.4227 1.62903 13.7861C2.10998 14.5134 2.82335 15.4825 3.75286 16.4507C5.61601 18.3915 8.32007 20.3013 11.7418 20.3013C15.1636 20.3013 17.8676 18.3915 19.7308 16.4507C20.6603 15.4825 21.3737 14.5134 21.8546 13.7861C22.0949 13.4227 22.2768 13.1203 22.3983 12.9095C22.4501 12.8196 22.4908 12.7464 22.5205 12.6922C22.4908 12.638 22.4501 12.5648 22.3983 12.4749C22.2768 12.264 22.0949 11.9616 21.8546 11.5982C21.3737 10.871 20.6603 9.90188 19.7308 8.93363C17.8676 6.99285 15.1636 5.08307 11.7418 5.08307C8.32007 5.08307 5.61601 6.99285 3.75286 8.93363C2.82335 9.90188 2.10998 10.871 1.62903 11.5982C1.38871 11.9616 1.20682 12.264 1.08535 12.4749C1.03358 12.5648 0.992812 12.638 0.96319 12.6922ZM8.95072 12.6741C8.95072 11.2919 10.1821 10.1378 11.7445 10.1378C13.307 10.1378 14.5383 11.2919 14.5383 12.6741C14.5383 14.0564 13.307 15.2105 11.7445 15.2105C10.1821 15.2105 8.95072 14.0564 8.95072 12.6741ZM11.7445 9.65464C9.95267 9.65464 8.46484 10.9879 8.46484 12.6741C8.46484 14.3603 9.95267 15.6936 11.7445 15.6936C13.5364 15.6936 15.0242 14.3603 15.0242 12.6741C15.0242 10.9879 13.5364 9.65464 11.7445 9.65464Z" fill="#8A8A8A"/>
<path d="M11.6185 4.60073L11.623 4.9507C11.7199 4.94947 11.8119 4.90815 11.8771 4.83658C11.9424 4.76502 11.9751 4.66959 11.9674 4.57303L11.6185 4.60073ZM7.42995 5.60243L7.12669 5.77717C7.21797 5.9356 7.41583 5.99707 7.58082 5.91824L7.42995 5.60243ZM6.15407 3.38811L5.84973 3.56098L5.85081 3.56285L6.15407 3.38811ZM5.93217 3.25703L5.93389 3.60703L5.93521 3.60702L5.93217 3.25703ZM5.80253 3.29481L5.61669 2.9982L5.61294 3.00061L5.80253 3.29481ZM5.71371 3.65378L5.40485 3.8188L5.41044 3.82852L5.71371 3.65378ZM6.97042 5.83485L7.1353 6.14358C7.21891 6.09893 7.28083 6.02228 7.30691 5.93116C7.33299 5.84004 7.321 5.74223 7.27368 5.66011L6.97042 5.83485ZM3.99342 8.01235L3.761 8.27404C3.89667 8.39453 4.10192 8.39136 4.23381 8.26674L3.99342 8.01235ZM2.13954 6.36586L1.90698 6.62742L1.90712 6.62755L2.13954 6.36586ZM1.95262 6.29354H1.60262C1.60262 6.48347 1.75409 6.63873 1.94396 6.64343L1.95262 6.29354ZM1.95262 6.29352H2.30262C2.30262 6.10739 2.15694 5.95382 1.97107 5.94401L1.95262 6.29352ZM1.74329 6.36585L1.5086 6.10619L1.50814 6.10661L1.74329 6.36585ZM1.66045 6.54834L2.01045 6.54834V6.54834H1.66045ZM1.74329 6.73082H2.09329C2.09329 6.63208 2.05158 6.53793 1.97844 6.47159L1.74329 6.73082ZM1.74329 6.73093H1.39329C1.39329 6.83096 1.43609 6.9262 1.51087 6.99262L1.74329 6.73093ZM3.60873 8.38769L3.85708 8.63432C3.92487 8.56606 3.96157 8.47289 3.95856 8.37673C3.95555 8.28057 3.91308 8.18989 3.84115 8.126L3.60873 8.38769ZM3.4014 8.60005L3.14891 8.35766H3.14891L3.4014 8.60005ZM1.22306 11.3328L1.515 11.5259H1.515L1.22306 11.3328ZM0.663725 12.2348L0.967011 12.4095H0.967011L0.663725 12.2348ZM0.521071 12.4894L0.213345 12.3227L0.213343 12.3227L0.521071 12.4894ZM0.484595 12.5576L0.174891 12.3946L0.174467 12.3954L0.484595 12.5576ZM0.475146 12.5757L0.165015 12.4135L0.164323 12.4148L0.475146 12.5757ZM0.472628 12.5806L0.161804 12.4197L0.161353 12.4205L0.472628 12.5806ZM0.471922 12.5819L0.160647 12.4219L0.160481 12.4222L0.471922 12.5819ZM0.471585 12.8018L0.160045 12.9613L0.160288 12.9617L0.471585 12.8018ZM0.472628 12.8038L0.161329 12.9638L0.161792 12.9647L0.472628 12.8038ZM0.475146 12.8087L0.164307 12.9695L0.165018 12.9709L0.475146 12.8087ZM0.484595 12.8267L0.174466 12.989L0.174892 12.9898L0.484595 12.8267ZM0.521071 12.8949L0.213343 13.0617L0.213345 13.0617L0.521071 12.8949ZM0.663725 13.1496L0.967011 12.9749H0.967011L0.663725 13.1496ZM1.22306 14.0516L1.515 13.8585H1.515L1.22306 14.0516ZM3.4014 16.7843L3.65388 16.5419L3.4014 16.7843ZM20.0823 16.7843L20.3347 17.0267L20.0823 16.7843ZM22.2606 14.0516L21.9687 13.8585L21.9687 13.8585L22.2606 14.0516ZM22.8199 13.1496L23.1232 13.3243V13.3243L22.8199 13.1496ZM22.9626 12.8949L23.2703 13.0617L23.2703 13.0617L22.9626 12.8949ZM22.9991 12.8267L23.3088 12.9898L23.3092 12.989L22.9991 12.8267ZM23.0085 12.8087L23.3186 12.9709L23.3193 12.9695L23.0085 12.8087ZM23.011 12.8038L23.3219 12.9647L23.3222 12.964L23.011 12.8038ZM23.0119 12.802L23.3231 12.9622L23.3235 12.9615L23.0119 12.802ZM23.0119 12.5823L23.3235 12.4228L23.3232 12.4222L23.0119 12.5823ZM23.011 12.5806L23.3223 12.4205L23.3218 12.4197L23.011 12.5806ZM23.0085 12.5757L23.3193 12.4148L23.3186 12.4135L23.0085 12.5757ZM22.9991 12.5576L23.3092 12.3954L23.3088 12.3946L22.9991 12.5576ZM22.9626 12.4894L23.2703 12.3227L23.2703 12.3227L22.9626 12.4894ZM22.8199 12.2348L23.1232 12.0601V12.0601L22.8199 12.2348ZM22.2606 11.3328L21.9687 11.5259L21.9687 11.5259L22.2606 11.3328ZM20.0823 8.60005L20.3347 8.35766L20.0823 8.60005ZM19.6042 8.12106L19.3586 7.87164C19.2913 7.93789 19.2537 8.02854 19.2542 8.12298C19.2547 8.21742 19.2934 8.30765 19.3614 8.37316L19.6042 8.12106ZM21.2632 6.48789L21.5087 6.73733L21.5119 6.73415L21.2632 6.48789ZM21.2632 6.12234L21.0069 6.36099L21.0145 6.3686L21.2632 6.12234ZM21.0809 6.04311L21.0787 5.69304L21.0713 5.69324L21.0809 6.04311ZM20.912 6.11553L21.1576 6.36495L21.1577 6.36481L20.912 6.11553ZM19.2298 7.77155L18.995 8.03111C19.1325 8.15551 19.3432 8.15106 19.4754 8.02097L19.2298 7.77155ZM16.3215 5.73476L16.0163 5.56356C15.9697 5.6466 15.959 5.74502 15.9866 5.83615C16.0141 5.92727 16.0776 6.00322 16.1624 6.0465L16.3215 5.73476ZM17.4168 3.78159L17.7222 3.95282L17.7256 3.94652L17.4168 3.78159ZM17.3289 3.42558L17.5185 3.13137L17.5144 3.12877L17.3289 3.42558ZM17.2002 3.38813L17.2019 3.03813C17.0853 3.03756 16.976 3.09515 16.9105 3.19172L17.2002 3.38813ZM17.2002 3.38814L17.1946 3.7381C17.3126 3.73999 17.4237 3.68226 17.4899 3.58455L17.2002 3.38814ZM16.9785 3.51815L16.6741 3.3453L16.6734 3.34659L16.9785 3.51815ZM15.8577 5.51113L15.713 5.8298C15.8784 5.90492 16.0738 5.84102 16.1628 5.68268L15.8577 5.51113ZM12.1021 4.60665L11.7538 4.5718C11.7442 4.66794 11.7747 4.76378 11.8382 4.83662C11.9017 4.90946 11.9925 4.95281 12.089 4.95641L12.1021 4.60665ZM22.7956 12.6922L22.6371 12.3801C22.5196 12.4397 22.4456 12.5604 22.4456 12.6922C22.4456 12.824 22.5196 12.9446 22.6371 13.0043L22.7956 12.6922ZM0.688084 12.6922L0.530014 13.0044C0.702291 13.0917 0.912647 13.0229 1.00011 12.8507C1.08758 12.6786 1.01912 12.4681 0.847104 12.3804L0.688084 12.6922ZM1.08535 12.9095L1.38864 12.7348H1.38864L1.08535 12.9095ZM0.96319 12.6922L0.656075 12.5243C0.598894 12.6289 0.598894 12.7554 0.656075 12.86L0.96319 12.6922ZM1.62903 13.7861L1.3371 13.9792H1.3371L1.62903 13.7861ZM3.75286 16.4507L3.50038 16.6931H3.50038L3.75286 16.4507ZM19.7308 16.4507L19.9833 16.6931L19.7308 16.4507ZM21.8546 13.7861L22.1466 13.9792L21.8546 13.7861ZM22.3983 12.9095L22.7016 13.0842L22.7016 13.0841L22.3983 12.9095ZM22.5205 12.6922L22.8276 12.86C22.8848 12.7554 22.8848 12.6289 22.8276 12.5243L22.5205 12.6922ZM22.3983 12.4749L22.7016 12.3002L22.7016 12.3002L22.3983 12.4749ZM21.8546 11.5982L22.1466 11.4052L21.8546 11.5982ZM19.7308 8.93363L19.9833 8.69125V8.69124L19.7308 8.93363ZM3.75286 8.93363L4.00535 9.17602L3.75286 8.93363ZM1.62903 11.5982L1.3371 11.4052H1.3371L1.62903 11.5982ZM1.08535 12.4749L1.38864 12.6496H1.38864L1.08535 12.4749ZM11.8605 1.56875C11.8208 1.56875 11.7907 1.55054 11.7746 1.53299C11.7589 1.51594 11.7535 1.49746 11.7535 1.4833H12.4535C12.4535 1.1725 12.2154 0.86875 11.8605 0.86875V1.56875ZM11.9676 1.4833C11.9676 1.49746 11.9622 1.51592 11.9466 1.53296C11.9305 1.55048 11.9003 1.56875 11.8605 1.56875V0.86875C11.5056 0.86875 11.2676 1.17259 11.2676 1.4833H11.9676ZM11.9676 4.57769V1.4833H11.2676V4.57769H11.9676ZM11.9674 4.57303C11.9676 4.57466 11.9676 4.57622 11.9676 4.57769H11.2676C11.2676 4.59469 11.2683 4.61161 11.2696 4.62843L11.9674 4.57303ZM7.58082 5.91824C8.78463 5.34313 10.1345 4.96963 11.623 4.9507L11.6141 4.25076C10.0107 4.27115 8.56141 4.67399 7.27907 5.28662L7.58082 5.91824ZM5.85081 3.56285L7.12669 5.77717L7.73321 5.4277L6.45733 3.21337L5.85081 3.56285ZM5.93521 3.60702C5.89335 3.60738 5.86298 3.5843 5.84974 3.56098L6.4584 3.21524C6.35193 3.02782 6.15271 2.9051 5.92913 2.90704L5.93521 3.60702ZM5.98836 3.59141C5.97276 3.60118 5.95385 3.60693 5.93389 3.60703L5.93044 2.90703C5.8192 2.90758 5.71073 2.93931 5.6167 2.99822L5.98836 3.59141ZM6.0224 3.48884C6.03165 3.50614 6.03284 3.52435 6.02907 3.53956C6.02529 3.55482 6.01445 3.57462 5.99212 3.58902L5.61294 3.00061C5.33742 3.17816 5.2555 3.53891 5.40501 3.81872L6.0224 3.48884ZM7.27368 5.66011L6.01697 3.47904L5.41044 3.82852L6.66716 6.00958L7.27368 5.66011ZM4.23381 8.26674C5.0627 7.48345 6.03295 6.73227 7.1353 6.14358L6.80555 5.52611C5.63663 6.15036 4.61651 6.94199 3.75303 7.75796L4.23381 8.26674ZM1.90712 6.62755L3.761 8.27404L4.22583 7.75066L2.37196 6.10417L1.90712 6.62755ZM1.94396 6.64343C1.93437 6.64319 1.92084 6.63975 1.90698 6.62742L2.3721 6.1043C2.25756 6.00246 2.11073 5.94734 1.96128 5.94365L1.94396 6.64343ZM1.60262 6.29352V6.29354H2.30262V6.29352H1.60262ZM1.97798 6.62551C1.96132 6.64056 1.94494 6.64361 1.93417 6.64304L1.97107 5.94401C1.80471 5.93523 1.6365 5.9906 1.5086 6.10619L1.97798 6.62551ZM2.01045 6.54834C2.01045 6.583 1.99518 6.60991 1.97844 6.62509L1.50814 6.10661C1.38533 6.21801 1.31045 6.3766 1.31045 6.54834H2.01045ZM1.97844 6.47159C1.99518 6.48677 2.01045 6.51368 2.01045 6.54834L1.31045 6.54834C1.31045 6.72008 1.38533 6.87867 1.50814 6.99006L1.97844 6.47159ZM2.09329 6.73093V6.73082H1.39329V6.73093H2.09329ZM3.84115 8.126L1.97571 6.46924L1.51087 6.99262L3.37632 8.64938L3.84115 8.126ZM3.65388 8.84244C3.72049 8.77306 3.78822 8.70365 3.85708 8.63432L3.36039 8.14106C3.28869 8.21326 3.2182 8.28549 3.14891 8.35766L3.65388 8.84244ZM1.515 11.5259C1.99912 10.7938 2.71741 9.81793 3.65388 8.84244L3.14891 8.35766C2.1761 9.37101 1.43208 10.3822 0.931127 11.1397L1.515 11.5259ZM0.967011 12.4095C1.08967 12.1965 1.273 11.8918 1.515 11.5259L0.931127 11.1397C0.680289 11.519 0.489433 11.8361 0.360439 12.0601L0.967011 12.4095ZM0.828796 12.6562C0.85953 12.5995 0.905684 12.516 0.967011 12.4095L0.360439 12.0601C0.295919 12.1721 0.246808 12.2609 0.213345 12.3227L0.828796 12.6562ZM0.794298 12.7207C0.801923 12.7062 0.813433 12.6845 0.828798 12.6562L0.213343 12.3227C0.196608 12.3536 0.183781 12.3777 0.174892 12.3946L0.794298 12.7207ZM0.785274 12.7379L0.794723 12.7199L0.174467 12.3954L0.165018 12.4135L0.785274 12.7379ZM0.783452 12.7415L0.785969 12.7366L0.164323 12.4148L0.161805 12.4197L0.783452 12.7415ZM0.783197 12.742L0.783903 12.7406L0.161353 12.4205L0.160647 12.4219L0.783197 12.742ZM0.783125 12.6423C0.799683 12.6746 0.798954 12.7112 0.783462 12.7414L0.160382 12.4224C0.0743823 12.5904 0.072979 12.7912 0.160045 12.9613L0.783125 12.6423ZM0.783926 12.6438L0.782883 12.6418L0.160288 12.9617L0.16133 12.9638L0.783926 12.6438ZM0.785982 12.6478L0.783465 12.6429L0.161792 12.9647L0.16431 12.9695L0.785982 12.6478ZM0.794723 12.6645L0.785274 12.6464L0.165018 12.9709L0.174467 12.989L0.794723 12.6645ZM0.828798 12.7282C0.813431 12.6998 0.801921 12.6782 0.794298 12.6637L0.174892 12.9898C0.183783 13.0067 0.19661 13.0308 0.213343 13.0617L0.828798 12.7282ZM0.967011 12.9749C0.905684 12.8684 0.85953 12.7849 0.828796 12.7282L0.213345 13.0617C0.246808 13.1234 0.295919 13.2122 0.360439 13.3243L0.967011 12.9749ZM1.515 13.8585C1.273 13.4926 1.08968 13.1878 0.967011 12.9749L0.360439 13.3243C0.489433 13.5482 0.680289 13.8653 0.931127 14.2446L1.515 13.8585ZM3.65388 16.5419C2.71741 15.5664 1.99912 14.5905 1.515 13.8585L0.931127 14.2446C1.43208 15.0021 2.1761 16.0133 3.14891 17.0267L3.65388 16.5419ZM11.7418 20.4344C8.266 20.4344 5.52855 18.4947 3.65388 16.5419L3.14891 17.0267C5.0846 19.043 7.99275 21.1344 11.7418 21.1344V20.4344ZM19.8298 16.5419C17.9551 18.4947 15.2177 20.4344 11.7418 20.4344V21.1344C15.4909 21.1344 18.3991 19.043 20.3347 17.0267L19.8298 16.5419ZM21.9687 13.8585C21.4845 14.5905 20.7662 15.5664 19.8298 16.5419L20.3347 17.0267C21.3076 16.0133 22.0516 15.0021 22.5525 14.2446L21.9687 13.8585ZM22.5166 12.9749C22.394 13.1878 22.2107 13.4926 21.9687 13.8585L22.5525 14.2446C22.8034 13.8653 22.9942 13.5482 23.1232 13.3243L22.5166 12.9749ZM22.6549 12.7282C22.6241 12.7849 22.578 12.8684 22.5166 12.9749L23.1232 13.3243C23.1877 13.2122 23.2368 13.1234 23.2703 13.0617L22.6549 12.7282ZM22.6894 12.6637C22.6817 12.6782 22.6702 12.6998 22.6549 12.7282L23.2703 13.0617C23.287 13.0308 23.2999 13.0066 23.3088 12.9898L22.6894 12.6637ZM22.6984 12.6464L22.6889 12.6645L23.3092 12.989L23.3186 12.9709L22.6984 12.6464ZM22.7002 12.6429L22.6977 12.6478L23.3193 12.9695L23.3219 12.9647L22.7002 12.6429ZM22.7007 12.6418L22.6998 12.6436L23.3222 12.964L23.3231 12.9622L22.7007 12.6418ZM22.7004 12.7419C22.6844 12.7106 22.6844 12.6738 22.7004 12.6425L23.3235 12.9615C23.41 12.7925 23.41 12.5918 23.3235 12.4228L22.7004 12.7419ZM22.6998 12.7406L22.7007 12.7424L23.3232 12.4222L23.3223 12.4205L22.6998 12.7406ZM22.6977 12.7366L22.7002 12.7415L23.3218 12.4197L23.3193 12.4148L22.6977 12.7366ZM22.6889 12.7199L22.6984 12.7379L23.3186 12.4135L23.3092 12.3954L22.6889 12.7199ZM22.6549 12.6562C22.6702 12.6845 22.6817 12.7062 22.6894 12.7207L23.3088 12.3946C23.2999 12.3777 23.287 12.3536 23.2703 12.3227L22.6549 12.6562ZM22.5166 12.4095C22.578 12.516 22.6241 12.5995 22.6549 12.6562L23.2703 12.3227C23.2368 12.2609 23.1877 12.1721 23.1232 12.0601L22.5166 12.4095ZM21.9687 11.5259C22.2107 11.8918 22.394 12.1965 22.5166 12.4095L23.1232 12.0601C22.9942 11.8361 22.8034 11.519 22.5525 11.1397L21.9687 11.5259ZM19.8298 8.84244C20.7662 9.81793 21.4845 10.7938 21.9687 11.5259L22.5525 11.1397C22.0516 10.3822 21.3076 9.37101 20.3347 8.35766L19.8298 8.84244ZM19.3614 8.37316C19.5232 8.529 19.6794 8.68577 19.8298 8.84244L20.3347 8.35766C20.1783 8.19469 20.0157 8.03142 19.847 7.86895L19.3614 8.37316ZM21.0176 6.23847L19.3586 7.87164L19.8497 8.37048L21.5087 6.73731L21.0176 6.23847ZM20.9879 6.30517C20.9879 6.28258 20.9967 6.2596 21.0145 6.24163L21.5119 6.73415C21.6253 6.61962 21.6879 6.46502 21.6879 6.30517H20.9879ZM21.0145 6.3686C20.9966 6.35058 20.9879 6.32758 20.9879 6.30517H21.6879C21.6879 6.14529 21.6253 5.99067 21.5119 5.87609L21.0145 6.3686ZM21.0831 6.3931C21.0526 6.39329 21.0253 6.38051 21.007 6.36088L21.5193 5.88381C21.406 5.76221 21.2469 5.69206 21.0787 5.69312L21.0831 6.3931ZM21.1577 6.36481C21.141 6.38129 21.1172 6.39224 21.0905 6.39298L21.0713 5.69324C20.9182 5.69744 20.774 5.76014 20.6663 5.86624L21.1577 6.36481ZM19.4754 8.02097L21.1576 6.36495L20.6665 5.86611L18.9843 7.52213L19.4754 8.02097ZM16.1624 6.0465C17.2291 6.59091 18.176 7.2902 18.995 8.03111L19.4646 7.51199C18.6101 6.739 17.6132 6.00103 16.4807 5.42301L16.1624 6.0465ZM17.1116 3.6104L16.0163 5.56356L16.6268 5.90595L17.7221 3.95279L17.1116 3.6104ZM17.1392 3.71975C17.1164 3.705 17.1052 3.68466 17.1013 3.66887C17.0974 3.65313 17.0987 3.63441 17.1081 3.61667L17.7256 3.94652C17.8744 3.668 17.7932 3.30849 17.5185 3.1314L17.1392 3.71975ZM17.1985 3.73812C17.1782 3.73802 17.1591 3.73218 17.1434 3.72238L17.5144 3.12877C17.4207 3.07023 17.3127 3.03868 17.2019 3.03813L17.1985 3.73812ZM17.4899 3.58455L17.4899 3.58453L16.9105 3.19172L16.9105 3.19174L17.4899 3.58455ZM17.2828 3.69099C17.2691 3.71506 17.2378 3.73879 17.1946 3.7381L17.2058 3.03819C16.9813 3.03459 16.7809 3.15736 16.6741 3.34531L17.2828 3.69099ZM16.1628 5.68268L17.2835 3.6897L16.6734 3.34659L15.5527 5.33957L16.1628 5.68268ZM12.089 4.95641C13.4105 5.00567 14.6202 5.33352 15.713 5.8298L16.0025 5.19245C14.8373 4.66329 13.5384 4.30995 12.1151 4.25689L12.089 4.95641ZM11.7535 4.57769C11.7535 4.57581 11.7536 4.57384 11.7538 4.5718L12.4503 4.6415C12.4524 4.62044 12.4535 4.59915 12.4535 4.57769H11.7535ZM11.7535 1.4833V4.57769H12.4535V1.4833H11.7535ZM22.8535 12.2702L22.6371 12.3801L22.954 13.0043L23.1704 12.8944L22.8535 12.2702ZM22.9536 13.0044C23.0619 12.9496 23.1163 12.922 23.1437 12.9081C23.1573 12.9012 23.1646 12.8974 23.1687 12.8953C23.1706 12.8943 23.1726 12.8933 23.1744 12.8924C23.175 12.892 23.1774 12.8908 23.1802 12.8892C23.1811 12.8888 23.1855 12.8863 23.191 12.8831C23.1926 12.8821 23.2012 12.877 23.2117 12.8698C23.215 12.8675 23.2307 12.8566 23.2487 12.8401C23.2556 12.8338 23.28 12.8113 23.3033 12.7763C23.3204 12.7478 23.3436 12.6943 23.3508 12.6701C23.3599 12.5442 23.3237 12.4233 23.0119 12.5823C22.7001 12.7413 22.664 12.6204 22.6731 12.4946C22.6803 12.4704 22.7035 12.4169 22.7206 12.3884C22.7439 12.3533 22.7683 12.3309 22.7752 12.3246C22.7931 12.3081 22.8089 12.2972 22.8122 12.2949C22.8226 12.2877 22.8312 12.2826 22.8328 12.2816C22.8383 12.2784 22.8428 12.276 22.8435 12.2755C22.8463 12.274 22.8484 12.2729 22.8486 12.2728C22.8496 12.2723 22.8499 12.2721 22.8484 12.2729C22.8458 12.2742 22.8396 12.2774 22.8262 12.2842C22.7995 12.2978 22.7457 12.3251 22.6375 12.3799L22.9536 13.0044ZM22.6371 13.0043L22.8535 13.1141L23.1704 12.4899L22.954 12.3801L22.6371 13.0043ZM23.0119 12.802C23.3237 12.961 23.3599 12.8401 23.3508 12.7143C23.3436 12.6901 23.3204 12.6365 23.3033 12.608C23.28 12.573 23.2556 12.5506 23.2487 12.5442C23.2307 12.5277 23.215 12.5169 23.2117 12.5146C23.2012 12.5073 23.1926 12.5023 23.191 12.5013C23.1855 12.498 23.1811 12.4956 23.1802 12.4951C23.1774 12.4935 23.175 12.4923 23.1744 12.492C23.1726 12.491 23.1706 12.49 23.1687 12.489C23.1646 12.4869 23.1573 12.4832 23.1437 12.4763C23.1163 12.4623 23.0619 12.4347 22.9536 12.3799L22.6375 13.0044C22.7457 13.0592 22.7995 13.0865 22.8262 13.1001C22.8396 13.1069 22.8458 13.1101 22.8484 13.1115C22.8499 13.1122 22.8496 13.1121 22.8486 13.1116C22.8484 13.1115 22.8463 13.1103 22.8435 13.1088C22.8428 13.1084 22.8383 13.106 22.8328 13.1027C22.8312 13.1017 22.8226 13.0967 22.8122 13.0894C22.8089 13.0871 22.7931 13.0763 22.7752 13.0598C22.7683 13.0534 22.7439 13.031 22.7206 12.996C22.7035 12.9675 22.6803 12.9139 22.6731 12.8898C22.664 12.7639 22.7001 12.643 23.0119 12.802ZM0.847104 12.3804L0.630942 12.2701L0.312902 12.8937L0.529064 13.004L0.847104 12.3804ZM0.471922 12.5819C0.160481 12.4222 0.139473 12.4725 0.126518 12.5254C0.124234 12.5418 0.121968 12.5876 0.123674 12.6169C0.128846 12.6684 0.144343 12.708 0.155591 12.7317C0.176952 12.7768 0.202997 12.8064 0.212375 12.8167C0.233936 12.8406 0.254018 12.8559 0.258653 12.8594C0.272354 12.87 0.283895 12.8771 0.286153 12.8786C0.293654 12.8833 0.299789 12.8867 0.301109 12.8874C0.305373 12.8898 0.309272 12.8919 0.311507 12.8931C0.316811 12.8959 0.325078 12.9002 0.338848 12.9073C0.366809 12.9216 0.421623 12.9496 0.530014 13.0044L0.846154 12.3799C0.738046 12.3252 0.68478 12.298 0.658784 12.2846C0.645576 12.2779 0.640397 12.2751 0.638998 12.2744C0.637881 12.2738 0.640116 12.275 0.643553 12.2769C0.644458 12.2774 0.650389 12.2807 0.65779 12.2854C0.659998 12.2867 0.671514 12.2939 0.685203 12.3044C0.689832 12.308 0.709912 12.3233 0.731471 12.3471C0.740848 12.3575 0.766893 12.387 0.788253 12.4321C0.799502 12.4559 0.814998 12.4955 0.82017 12.547C0.821877 12.5763 0.819611 12.6221 0.817326 12.6385C0.804371 12.6914 0.783364 12.7416 0.471922 12.5819ZM1.38864 12.7348C1.33823 12.6473 1.29874 12.5763 1.2703 12.5243L0.656075 12.86C0.686888 12.9164 0.728935 12.9919 0.782064 13.0841L1.38864 12.7348ZM1.92097 13.5931C1.68506 13.2363 1.50694 12.9401 1.38864 12.7348L0.782064 13.0841C0.906696 13.3005 1.09236 13.6091 1.3371 13.9792L1.92097 13.5931ZM4.00535 16.2083C3.094 15.259 2.3935 14.3076 1.92097 13.5931L1.3371 13.9792C1.82645 14.7191 2.55269 15.7059 3.50038 16.6931L4.00535 16.2083ZM11.7418 19.9513C8.45664 19.9513 5.83793 18.1173 4.00535 16.2083L3.50038 16.6931C5.39409 18.6657 8.18351 20.6513 11.7418 20.6513V19.9513ZM19.4783 16.2083C17.6457 18.1173 15.027 19.9513 11.7418 19.9513V20.6513C15.3001 20.6513 18.0896 18.6657 19.9833 16.6931L19.4783 16.2083ZM21.5627 13.5931C21.0902 14.3076 20.3897 15.259 19.4783 16.2083L19.9833 16.6931C20.931 15.7059 21.6572 14.7191 22.1466 13.9792L21.5627 13.5931ZM22.095 12.7348C21.9767 12.9401 21.7986 13.2363 21.5627 13.5931L22.1466 13.9792C22.3913 13.6091 22.577 13.3005 22.7016 13.0842L22.095 12.7348ZM22.2133 12.5243C22.1849 12.5763 22.1454 12.6473 22.095 12.7348L22.7016 13.0841C22.7547 12.9919 22.7968 12.9164 22.8276 12.86L22.2133 12.5243ZM22.095 12.6496C22.1454 12.7371 22.1849 12.808 22.2133 12.86L22.8276 12.5243C22.7968 12.4679 22.7547 12.3924 22.7016 12.3002L22.095 12.6496ZM21.5627 11.7913C21.7986 12.148 21.9767 12.4442 22.095 12.6496L22.7016 12.3002C22.577 12.0838 22.3913 11.7752 22.1466 11.4052L21.5627 11.7913ZM19.4783 9.17602C20.3897 10.1253 21.0902 11.0768 21.5627 11.7913L22.1466 11.4052C21.6572 10.6652 20.931 9.67841 19.9833 8.69125L19.4783 9.17602ZM11.7418 5.43307C15.027 5.43307 17.6457 7.26708 19.4783 9.17602L19.9833 8.69124C18.0896 6.71862 15.3001 4.73307 11.7418 4.73307V5.43307ZM4.00535 9.17602C5.83793 7.26708 8.45664 5.43307 11.7418 5.43307V4.73307C8.18351 4.73307 5.39409 6.71862 3.50038 8.69124L4.00535 9.17602ZM1.92097 11.7913C2.3935 11.0768 3.094 10.1253 4.00535 9.17602L3.50038 8.69124C2.55269 9.67841 1.82645 10.6652 1.3371 11.4052L1.92097 11.7913ZM1.38864 12.6496C1.50694 12.4442 1.68506 12.148 1.92097 11.7913L1.3371 11.4052C1.09236 11.7752 0.906696 12.0838 0.782064 12.3002L1.38864 12.6496ZM1.2703 12.86C1.29873 12.808 1.33823 12.7371 1.38864 12.6496L0.782064 12.3002C0.728936 12.3924 0.686889 12.4679 0.656075 12.5243L1.2703 12.86ZM11.7445 9.78775C10.018 9.78775 8.60072 11.0706 8.60072 12.6741H9.30072C9.30072 11.5132 10.3462 10.4878 11.7445 10.4878V9.78775ZM14.8883 12.6741C14.8883 11.0706 13.471 9.78775 11.7445 9.78775V10.4878C13.1429 10.4878 14.1883 11.5132 14.1883 12.6741H14.8883ZM11.7445 15.5605C13.471 15.5605 14.8883 14.2776 14.8883 12.6741H14.1883C14.1883 13.8351 13.1429 14.8605 11.7445 14.8605V15.5605ZM8.60072 12.6741C8.60072 14.2776 10.018 15.5605 11.7445 15.5605V14.8605C10.3462 14.8605 9.30072 13.8351 9.30072 12.6741H8.60072ZM8.81484 12.6741C8.81484 11.2105 10.1153 10.0046 11.7445 10.0046V9.30464C9.79004 9.30464 8.11484 10.7653 8.11484 12.6741H8.81484ZM11.7445 15.3436C10.1153 15.3436 8.81484 14.1377 8.81484 12.6741H8.11484C8.11484 14.5829 9.79004 16.0436 11.7445 16.0436V15.3436ZM14.6742 12.6741C14.6742 14.1377 13.3737 15.3436 11.7445 15.3436V16.0436C13.699 16.0436 15.3742 14.5829 15.3742 12.6741H14.6742ZM11.7445 10.0046C13.3737 10.0046 14.6742 11.2105 14.6742 12.6741H15.3742C15.3742 10.7653 13.699 9.30464 11.7445 9.30464V10.0046Z" fill="#8A8A8A"/>
</svg>
