<svg width="20" height="21" viewBox="0 0 20 21" fill="none" xmlns="http://www.w3.org/2000/svg">
<path d="M9.82133 3.90401L10.0012 4.0904L10.1811 3.90401L10.7083 3.35779C12.7771 1.21407 16.1283 1.21407 18.1972 3.35779C20.2703 5.50595 20.2714 8.97369 18.1776 11.1432L10.6023 18.9926C10.2711 19.3358 9.71185 19.3358 9.38062 18.9926L1.80527 11.1432C-0.268423 8.99448 -0.268423 5.5065 1.80527 3.35779C3.87415 1.21407 7.2253 1.21407 9.29418 3.35779L9.82133 3.90401ZM9.82133 15.9613L10.0012 16.1477L10.1811 15.9613L16.5264 9.38646L16.528 9.38476C17.6532 8.1969 17.6562 6.28331 16.4858 5.11289C15.9318 4.53968 15.2039 4.22893 14.4137 4.22893C13.6227 4.22893 12.8941 4.54027 12.3399 5.11453L9.98169 7.55809L7.62344 5.11453C7.06923 4.54027 6.34071 4.22893 5.54972 4.22893C4.75873 4.22893 4.03021 4.54027 3.476 5.11453C2.92211 5.68846 2.62492 6.43908 2.62492 7.25049C2.62492 8.06191 2.92211 8.81252 3.476 9.38645L9.82133 15.9613ZM8.10353 11.0982C8.12085 9.98534 8.99947 9.16162 10.0946 9.17958C11.0958 9.19726 11.935 10.0818 11.9185 11.1896C11.8825 12.3342 11.032 13.1685 9.92717 13.1506C8.91173 13.1329 8.08587 12.2332 8.10353 11.0982Z" fill="#A07F5D" stroke="#2D2D2D" stroke-width="0.5"/>
</svg>
