<svg width="60" height="82" viewBox="0 0 60 82" fill="none" xmlns="http://www.w3.org/2000/svg">
<path fill-rule="evenodd" clip-rule="evenodd" d="M29.8592 81.5C40.2817 69.5632 60 47.1105 60 30.6263C60 14.1421 46.4789 0.5 29.8592 0.5C13.5211 0.5 0 14.1421 0 30.6263C0 47.1105 19.7183 69.5632 29.8592 81.5Z" fill="#A07F5D"/>
<circle cx="30" cy="30.5" r="25" fill="#FCFCFC"/>
<path fill-rule="evenodd" clip-rule="evenodd" d="M36 22.5C34.3684 22.5 33.1579 23.6773 33.1053 24.8983L33 29.8256C33 30.6541 33.8947 30.9593 33.8947 30.9593L33.8421 36.5843C33.8421 37.1076 34.3684 37.5 34.9474 37.5C35.5263 37.5 36 37.1076 36 36.5843V22.5Z" fill="#2D2D2D"/>
<path fill-rule="evenodd" clip-rule="evenodd" d="M26.9982 37.5H26.0018C25.3119 37.5 24.622 37.1006 24.622 36.6568L25.1586 28.4024C22.7057 28.1805 23.0123 26.8047 23.0123 25.7396L24.0854 22.5444L24.8519 22.5L25.1586 25.8728H25.6951L26.0018 22.5H26.9982L27.3049 25.8728H27.8414L28.1481 22.5L28.9146 22.5444L29.9877 25.7396C29.9877 26.8047 30.2943 28.1805 27.8414 28.4024L28.378 36.6568C28.378 37.1006 27.6881 37.5 26.9982 37.5Z" fill="#2D2D2D"/>
</svg>
