<svg width="241" height="351" viewBox="0 0 241 351" fill="none" xmlns="http://www.w3.org/2000/svg">
<path d="M121.597 218.71C107.467 218.382 96.2949 228.733 95.9663 242.37C95.802 256.171 106.153 267.343 119.625 267.672C133.755 268 144.763 257.485 145.092 243.355C145.256 230.047 134.741 218.875 121.597 218.71Z" stroke="#C5A57C" stroke-width="2" stroke-miterlimit="10"/>
<path d="M146.57 117.174L158.892 104.851C159.057 104.687 159.385 104.687 159.385 104.851L173.022 118.488C174.994 120.46 177.622 121.446 180.087 121.446C182.716 121.446 185.18 120.46 187.152 118.488C191.095 114.545 191.095 108.137 187.152 104.358L173.515 90.7217C169.572 86.7785 164.478 84.6426 159.056 84.6426C153.635 84.6426 148.377 86.7785 144.598 90.7217L132.276 103.044C128.333 106.987 128.333 113.395 132.276 117.174C136.219 121.117 142.627 121.117 146.57 117.174Z" stroke="#C5A57C" stroke-width="2" stroke-miterlimit="10"/>
<path d="M73.6205 117.174L85.943 104.851C86.1073 104.687 86.4359 104.687 86.4359 104.851L100.073 118.488C102.044 120.46 104.673 121.446 107.138 121.446C109.766 121.446 112.231 120.46 114.202 118.488C118.146 114.545 118.146 108.137 114.202 104.358L100.566 90.7217C96.6225 86.7785 91.5292 84.6426 86.1073 84.6426C80.6854 84.6426 75.4279 86.7785 71.649 90.7217L59.3265 103.044C55.3833 106.987 55.3833 113.395 59.3265 117.174C63.434 121.117 69.6773 121.117 73.6205 117.174Z" stroke="#C5A57C" stroke-width="2" stroke-miterlimit="10"/>
<path d="M120.446 349L177.622 291.66L183.536 297.574C186.33 300.367 190.93 300.367 193.723 297.574L195.859 295.438C198.652 292.645 198.652 288.045 195.859 285.252C198.652 288.045 203.252 288.045 206.045 285.252L208.181 283.116C210.974 280.323 210.974 275.723 208.181 272.929C210.974 275.723 215.575 275.723 218.368 272.929L220.504 270.794C223.297 268 223.297 263.4 220.504 260.607L214.589 254.692L221.654 247.627C233.483 235.962 239.891 220.189 239.891 203.595C239.891 187.494 233.812 172.378 222.804 160.713V132.454C222.804 118.652 223.461 104.687 224.118 90.8859C224.611 82.6709 223.625 71.6629 217.546 61.6406C211.796 52.1113 202.431 45.7036 190.108 42.9105C165.628 37.3243 151.005 42.089 138.19 46.1965C130.632 48.661 124.224 50.7969 116.009 50.7969C77.3991 50.7969 52.5899 12.3509 52.4256 11.858L46.3466 2L37.4744 9.55776C16.4441 27.3021 5.10746 46.3608 3.95737 66.0767C2.97157 83.9853 10.6937 97.2936 15.1297 103.208V164.163C5.92899 175.336 1 189.137 1 203.595C1 220.189 7.40768 235.798 19.2372 247.627L28.6023 256.992L24.8234 260.771C22.0303 263.564 22.0303 268.165 24.8234 270.958L26.9593 273.094C29.7523 275.887 34.3527 275.887 37.1458 273.094C34.3527 275.887 34.3527 280.487 37.1458 283.28L39.2817 285.416C42.0748 288.209 46.6752 288.209 49.4683 285.416C46.6752 288.209 46.6752 292.81 49.4683 295.603L51.6041 297.739C54.3972 300.532 58.9976 300.532 61.7907 297.739L65.5696 293.96L120.446 349Z" stroke="#C5A57C" stroke-width="2" stroke-miterlimit="10"/>
<path d="M24.0021 67.2264C24.6593 55.5612 30.9026 43.896 42.4036 32.2307C54.0688 46.3604 79.6995 71.0053 116.01 71.0053C127.511 71.0053 136.054 68.2122 144.433 65.4192C156.263 61.476 166.614 58.19 185.673 62.6261C192.573 64.2691 197.338 67.2264 200.295 72.1554C203.417 77.2487 204.074 83.8207 203.745 89.2425C203.088 105.18 202.595 121.117 202.595 137.054V146.912C194.709 143.461 186.001 141.654 177.129 141.654C160.535 141.818 144.598 148.883 132.932 160.548L120.446 173.035L107.138 159.727C95.4723 148.062 79.6995 141.49 63.1053 141.49C53.2474 141.49 43.718 143.79 35.1744 148.062V95.8145L32.3814 92.8571C32.3814 92.6928 23.1806 82.5063 24.0021 67.2264Z" stroke="#C5A57C" stroke-width="2" stroke-miterlimit="10"/>
<path d="M120.446 320.576L79.6998 279.83L81.6714 277.858C84.4645 275.065 84.4645 270.465 81.6714 267.672L79.5355 265.536C76.7424 262.743 72.142 262.743 69.3489 265.536C72.142 262.743 72.142 258.142 69.3489 255.349L67.213 253.213C64.4199 250.42 59.8196 250.42 57.0265 253.213C59.8196 250.42 59.8196 245.82 57.0265 243.027L54.8906 240.891C52.0975 238.098 47.4971 238.098 44.7041 240.891L42.7324 242.863L33.3674 233.498C25.481 225.611 21.0449 214.932 21.0449 203.759C21.0449 192.587 25.481 181.908 33.3674 174.021C41.2537 166.135 51.9332 161.699 63.1055 161.699C74.2779 161.699 84.9573 166.135 92.8437 174.021L120.282 201.459L147.72 174.021C155.606 166.135 166.285 161.699 177.458 161.699C188.63 161.699 199.31 166.135 207.196 174.021C215.082 181.908 219.518 192.587 219.518 203.759C219.518 214.932 215.082 225.611 207.196 233.498L199.967 240.727C197.174 238.262 192.738 238.262 190.109 240.891L187.973 243.027C185.18 245.82 185.18 250.092 187.809 252.885C185.016 250.42 180.579 250.42 177.951 253.049L175.815 255.185C173.022 257.978 173.022 262.25 175.651 265.043C172.857 262.578 168.421 262.578 165.793 265.207L163.657 267.343C160.864 270.136 160.864 274.408 163.492 277.201L120.446 320.576Z" stroke="#C5A57C" stroke-width="2" stroke-miterlimit="10"/>
</svg>
