<svg width="60" height="60" viewBox="0 0 60 60" fill="none" xmlns="http://www.w3.org/2000/svg">
<path d="M57 43.6364H56V16.3636H57C58.6 16.3636 60 14.4545 60 12.2727C60 10.0909 58.6 8.18182 57 8.18182H56V5.45455C56 2.45455 54.2 0 52 0C49.8 0 48 2.45455 48 5.45455V8.18182H46V5.45455C46 2.45455 44.2 0 42 0C39.8 0 38 2.45455 38 5.45455V8.18182H36V5.45455C36 2.45455 34.2 0 32 0C29.8 0 28 2.45455 28 5.45455V8.18182H26V5.45455C26 2.45455 24.2 0 22 0C19.8 0 18 2.45455 18 5.45455V8.18182H16V5.45455C16 2.45455 14.2 0 12 0C9.8 0 8 2.45455 8 5.45455V8.18182H5.8C5.4 6.54545 4.4 5.45455 3 5.45455C1.4 5.45455 0 7.36364 0 9.54545V15C0 17.1818 1.4 19.0909 3 19.0909C4.4 19.0909 5.4 18 5.8 16.3636H8V54.5455C8 57.5455 9.8 60 12 60C14.2 60 16 57.5455 16 54.5455V51.8182H18V54.5455C18 57.5455 19.8 60 22 60C24.2 60 26 57.5455 26 54.5455V51.8182H28V54.5455C28 57.5455 29.8 60 32 60C34.2 60 36 57.5455 36 54.5455V51.8182H38V54.5455C38 57.5455 39.8 60 42 60C44.2 60 46 57.5455 46 54.5455V51.8182H48V54.5455C48 57.5455 49.8 60 52 60C54.2 60 56 57.5455 56 54.5455V51.8182H57C58.6 51.8182 60 49.9091 60 47.7273C60 45.5455 58.6 43.6364 57 43.6364ZM57 10.9091C57.6 10.9091 58 11.4545 58 12.2727C58 13.0909 57.6 13.6364 57 13.6364H56V10.9091H57ZM46 16.3636H48V43.6364H46V16.3636ZM48 10.9091V13.6364H46V10.9091H48ZM36 16.3636H38V43.6364H36V16.3636ZM38 10.9091V13.6364H36V10.9091H38ZM26 16.3636H28V43.6364H26V16.3636ZM28 10.9091V13.6364H26V10.9091H28ZM16 16.3636H18V43.6364H16V16.3636ZM18 10.9091V13.6364H16V10.9091H18ZM3 16.3636C2.4 16.3636 2 15.8182 2 15V9.54545C2 8.72727 2.4 8.18182 3 8.18182C3.6 8.18182 4 8.72727 4 9.54545V15C4 15.8182 3.6 16.3636 3 16.3636ZM6 13.6364V10.9091H8V13.6364H6ZM14 54.5455C14 56.1818 13.2 57.2727 12 57.2727C10.8 57.2727 10 56.1818 10 54.5455V15V9.54545V5.45455C10 3.81818 10.8 2.72727 12 2.72727C13.2 2.72727 14 3.81818 14 5.45455V9.54545V15V45V50.4545V54.5455ZM16 49.0909V46.3636H18V49.0909H16ZM24 54.5455C24 56.1818 23.2 57.2727 22 57.2727C20.8 57.2727 20 56.1818 20 54.5455V50.4545V45V15V9.54545V5.45455C20 3.81818 20.8 2.72727 22 2.72727C23.2 2.72727 24 3.81818 24 5.45455V9.54545V15V45V50.4545V54.5455ZM26 49.0909V46.3636H28V49.0909H26ZM34 54.5455C34 56.1818 33.2 57.2727 32 57.2727C30.8 57.2727 30 56.1818 30 54.5455V50.4545V45V15V9.54545V5.45455C30 3.81818 30.8 2.72727 32 2.72727C33.2 2.72727 34 3.81818 34 5.45455V9.54545V15V45V50.4545V54.5455ZM36 49.0909V46.3636H38V49.0909H36ZM44 54.5455C44 56.1818 43.2 57.2727 42 57.2727C40.8 57.2727 40 56.1818 40 54.5455V50.4545V45V15V9.54545V5.45455C40 3.81818 40.8 2.72727 42 2.72727C43.2 2.72727 44 3.81818 44 5.45455V9.54545V15V45V50.4545V54.5455ZM46 49.0909V46.3636H48V49.0909H46ZM54 54.5455C54 56.1818 53.2 57.2727 52 57.2727C50.8 57.2727 50 56.1818 50 54.5455V50.4545V45V15V9.54545V5.45455C50 3.81818 50.8 2.72727 52 2.72727C53.2 2.72727 54 3.81818 54 5.45455V9.54545V15V45V50.4545V54.5455ZM57 49.0909H56V46.3636H57C57.6 46.3636 58 46.9091 58 47.7273C58 48.5455 57.6 49.0909 57 49.0909Z" fill="#A07F5D"/>
</svg>
