<svg width="60" height="60" viewBox="0 0 60 60" fill="none" xmlns="http://www.w3.org/2000/svg">
<path d="M59.0323 60H0.967742C0.711081 60 0.464932 59.9012 0.283445 59.7254C0.101958 59.5496 0 59.3111 0 59.0625V0.9375C0 0.688859 0.101958 0.450403 0.283445 0.274587C0.464932 0.098772 0.711081 0 0.967742 0H59.0323C59.2889 0 59.5351 0.098772 59.7166 0.274587C59.898 0.450403 60 0.688859 60 0.9375V59.0625C60 59.3111 59.898 59.5496 59.7166 59.7254C59.5351 59.9012 59.2889 60 59.0323 60ZM1.93548 58.125H58.0645V1.875H1.93548V58.125Z" fill="#A07F5D"/>
<path d="M47.4185 60H12.5798C12.3231 60 12.077 59.9012 11.8955 59.7254C11.714 59.5496 11.612 59.3111 11.612 59.0625V8.43751C11.612 8.18887 11.714 7.95041 11.8955 7.77459C12.077 7.59878 12.3231 7.50001 12.5798 7.50001H47.4185C47.6752 7.50001 47.9213 7.59878 48.1028 7.77459C48.2843 7.95041 48.3862 8.18887 48.3862 8.43751V59.0625C48.3862 59.3111 48.2843 59.5496 48.1028 59.7254C47.9213 59.9012 47.6752 60 47.4185 60ZM13.5475 58.125H46.4508V9.37501H13.5475V58.125Z" fill="#A07F5D"/>
<path d="M8.70939 36.5625H4.83842C4.58176 36.5625 4.33561 36.4637 4.15412 36.2879C3.97264 36.1121 3.87068 35.8736 3.87068 35.625V24.375C3.87068 24.1264 3.97264 23.8879 4.15412 23.7121C4.33561 23.5363 4.58176 23.4375 4.83842 23.4375H8.70939C8.96605 23.4375 9.2122 23.5363 9.39368 23.7121C9.57517 23.8879 9.67713 24.1264 9.67713 24.375V35.625C9.67713 35.8736 9.57517 36.1121 9.39368 36.2879C9.2122 36.4637 8.96605 36.5625 8.70939 36.5625ZM5.80616 34.6875H7.74165V25.3125H5.80616V34.6875Z" fill="#A07F5D"/>
<path d="M30.0005 60C29.7438 60 29.4977 59.9012 29.3162 59.7254C29.1347 59.5496 29.0327 59.3111 29.0327 59.0625V8.43751C29.0327 8.18887 29.1347 7.95041 29.3162 7.77459C29.4977 7.59878 29.7438 7.50001 30.0005 7.50001C30.2571 7.50001 30.5033 7.59878 30.6848 7.77459C30.8663 7.95041 30.9682 8.18887 30.9682 8.43751V59.0625C30.9682 59.3111 30.8663 59.5496 30.6848 59.7254C30.5033 59.9012 30.2571 60 30.0005 60Z" fill="#A07F5D"/>
</svg>
