<svg width="60" height="60" viewBox="0 0 60 60" fill="none" xmlns="http://www.w3.org/2000/svg">
<path d="M59.0945 53.3716L44.5154 39.0273C44.1129 38.6313 43.4603 38.6313 43.0578 39.0273L41.6 40.4615L36.8971 35.8353C36.5619 35.5021 36.5003 34.9873 36.7476 34.5867L50.4287 10.7727C51.1449 9.57738 50.9487 8.05681 49.9514 7.07559L43.7866 1.01409C42.5789 -0.174302 40.6207 -0.174556 39.4129 1.01371C39.4127 1.01383 39.4126 1.01396 39.4125 1.01409L38.6836 0.29697C38.2811 -0.0989901 37.6285 -0.0989901 37.2259 0.29697L35.0383 2.44832C33.0243 0.471304 29.7638 0.471304 27.7498 2.44832L1.50712 28.2685C-0.502373 30.2505 -0.502373 33.4588 1.50712 35.4407C0.299285 36.6291 0.299285 38.556 1.50712 39.7444C2.71495 40.9328 4.67342 40.9328 5.88125 39.7444C7.89564 41.7216 11.1564 41.7216 13.1708 39.7444L39.4125 13.9242C41.4254 11.9436 41.4254 8.73259 39.4125 6.75203L41.6 4.59966C42.0025 4.20358 42.0025 3.56152 41.6 3.16543L40.8702 2.44832C41.2725 2.05198 41.9253 2.0516 42.3281 2.44756C42.3284 2.44781 42.3286 2.44806 42.3289 2.44832L48.4886 8.50982C48.8262 8.84175 48.888 9.35842 48.638 9.75843L34.9651 33.5724C34.2497 34.7663 34.4447 36.285 35.4394 37.2665L40.1423 41.8927L38.6836 43.327C38.2812 43.723 38.2812 44.3651 38.6836 44.7612L53.2627 59.1086C54.4704 60.297 56.4286 60.2972 57.6364 59.1089C57.6366 59.1088 57.6367 59.1087 57.6368 59.1086L59.0945 57.6743C60.3018 56.4861 60.3018 54.5599 59.0945 53.3716ZM2.96482 38.3102C2.56238 37.9141 2.56238 37.272 2.96482 36.876L4.42252 38.3112C4.01969 38.7069 3.36713 38.7065 2.96482 38.3102ZM37.9548 12.49L11.712 38.3102C10.5025 39.4949 8.54743 39.4949 7.33792 38.3102L2.96482 34.0065C1.75698 32.8182 1.75673 30.8915 2.96443 29.7031C2.96456 29.703 2.96469 29.7029 2.96482 29.7028L29.2075 3.88255C30.4152 2.69467 32.3729 2.69467 33.5806 3.88255L37.9548 8.18626C39.16 9.37579 39.16 11.3004 37.9548 12.49ZM37.9548 5.31577L36.496 3.88255L37.9548 2.44832L39.4135 3.88255L37.9548 5.31577ZM57.6368 56.2401V56.234L56.1791 57.6743C55.7768 58.0707 55.124 58.0711 54.7211 57.6751C54.7209 57.6748 54.7206 57.6746 54.7204 57.6743L40.8702 44.0471L43.7866 41.1786L57.6368 54.8059C58.0392 55.202 58.0392 55.844 57.6368 56.2401Z" fill="#A07F5D"/>
</svg>
