<svg width="60" height="60" viewBox="0 0 60 60" fill="none" xmlns="http://www.w3.org/2000/svg">
<path d="M26.5 46.0497V34.0353C27.4899 33.4634 28.3241 32.6572 28.9293 31.6873C31.0606 33.2177 33.8691 33.426 36.2029 32.2271C38.5367 31.0282 40.003 28.6236 40 25.9999C39.9951 25.6578 39.9649 25.3167 39.9094 24.9792C43.8853 24.7669 47.0002 21.4812 47.0001 17.4998C47 13.5184 43.8849 10.2328 39.9091 10.0207C39.9646 9.68317 39.9951 9.34192 40 8.99997C40.003 6.37591 38.5364 3.97099 36.2021 2.77228C33.8678 1.57345 31.0589 1.78263 28.9278 3.3138C27.7094 1.33603 25.5856 0.0952472 23.2644 0.00524724C20.9431 -0.0847527 18.7297 0.98763 17.3617 2.86521C16.3339 2.29321 15.1762 1.99532 14 2.00001C10.136 2.00446 7.00464 5.13583 7.00007 8.99985C7.00499 9.34192 7.03534 9.68305 7.09101 10.0206C3.11507 10.2327 0 13.5184 0 17.4999C0 21.4815 3.11507 24.7671 7.09101 24.9792C7.03546 25.3167 7.00499 25.6579 7.00007 25.9999C7.00452 29.864 10.1359 32.9954 14 32.9998C15.1761 33.0045 16.3337 32.7066 17.3613 32.1348C17.6911 32.5849 18.0733 32.994 18.5 33.3537V46.0497C18.5004 48.2274 18.2131 50.3955 17.6455 52.4979C17.0747 54.5989 16.2308 56.6159 15.1357 58.4975C14.9556 58.8067 14.9545 59.1886 15.133 59.4988C15.3115 59.809 15.6421 60.0002 15.9999 59.9999H28.9999C29.3579 59.9999 29.6885 59.8086 29.867 59.4983C30.0453 59.1879 30.0443 58.8059 29.8641 58.4965C27.6628 54.7177 26.5019 50.423 26.5 46.0497ZM18.0001 27.9999C18.0002 27.6331 18.0395 27.2675 18.1173 26.9091C18.2327 26.3693 17.8887 25.838 17.3488 25.7226C16.8089 25.6072 16.2777 25.9512 16.1622 26.4911C16.0544 26.9868 16.0001 27.4926 16.0002 27.9999C15.9996 28.8082 16.1401 29.6103 16.4155 30.3703C15.6786 30.7862 14.8463 31.0032 14.0003 30.9999C11.2401 30.9966 9.0035 28.76 9.00022 25.9999C9.00796 24.4279 9.74729 22.9493 11.0003 21.9999C11.286 21.7857 11.4357 21.4353 11.3931 21.0807C11.3504 20.7261 11.1219 20.4213 10.7934 20.2809C10.4651 20.1405 10.0867 20.1861 9.80097 20.4003C8.90237 21.0791 8.18272 21.9665 7.70413 22.9859C7.63511 22.9885 7.57042 22.9999 7.50011 22.9999C4.46249 22.9999 2.00015 20.5374 2.00015 17.4999C2.00015 14.4623 4.46261 12 7.50011 12C7.74843 11.9996 7.9964 12.0168 8.24226 12.0518C9.26577 12.1877 10.23 12.6103 11.0235 13.271C11.299 13.4984 11.6748 13.5617 12.0095 13.4369C12.3442 13.3121 12.5869 13.0182 12.6462 12.6659C12.7055 12.3137 12.5722 11.9565 12.2968 11.729C11.3884 10.982 10.3167 10.4594 9.16862 10.2037C9.06269 9.81102 9.00597 9.40673 8.99987 8.99997C9.00315 6.23985 11.2398 4.00321 13.9999 3.99993C14.8458 3.99665 15.6779 4.21356 16.4147 4.62923C16.1396 5.38931 15.9992 6.19157 15.9999 6.99993C15.9998 7.50723 16.0542 8.01302 16.162 8.50872C16.2774 9.0486 16.8087 9.39266 17.3485 9.27723C17.8884 9.1618 18.2325 8.63059 18.117 8.09071C18.0392 7.73235 18 7.36661 17.9999 6.99993C17.9986 4.57802 19.7341 2.50392 22.1182 2.07782C24.5022 1.65173 26.8487 2.99657 27.6863 5.26895C27.8966 5.82173 28.0029 6.4086 27.9998 6.99993C28.0006 7.32712 27.9676 7.6536 27.9011 7.97411C27.7929 8.51212 28.1383 9.03688 28.6754 9.14997C29.2125 9.26305 29.7403 8.92216 29.8582 8.38614C29.9531 7.93016 30.0004 7.46563 29.9998 6.99993C29.9925 6.40532 29.9076 5.81423 29.7475 5.24153C30.6426 4.44267 31.8002 4.00087 32.9998 3.99993C35.76 4.00321 37.9966 6.23985 37.9999 8.99997C37.9921 10.5719 37.2528 12.0506 35.9998 12.9999C35.5582 13.3311 35.4685 13.9576 35.7997 14.3994C36.1309 14.8412 36.7573 14.9307 37.1991 14.5995C38.0977 13.9208 38.8174 13.0333 39.296 12.0139C39.365 12.0113 39.4297 12 39.5 12C42.5376 12 44.9999 14.4624 44.9999 17.4999C44.9999 20.5375 42.5375 22.9999 39.5 22.9999C39.4282 22.9999 39.3621 22.9884 39.2916 22.9857C38.7563 21.8504 37.9249 20.8803 36.8847 20.1777C36.4254 19.8761 35.8087 20.0018 35.5039 20.4589C35.1991 20.9161 35.3203 21.5336 35.7753 21.8417C37.6077 23.0643 38.4239 25.3422 37.785 27.4504C37.1461 29.5585 35.2027 31.0001 33 30.9999C31.8 30.9991 30.6423 30.5571 29.7472 29.758C29.9074 29.1854 29.9923 28.5944 30 27.9999C30.0007 27.5342 29.9532 27.0697 29.8584 26.6137C29.7875 26.2614 29.533 25.9742 29.1917 25.8615C28.8505 25.7487 28.475 25.8278 28.2082 26.0686C27.9413 26.3094 27.8243 26.6748 27.9015 27.0257C27.9679 27.3461 28.0009 27.6726 28 27.9999C28.0027 28.5959 27.8947 29.1874 27.6816 29.744C26.8391 32.0122 24.4925 33.3509 22.1113 32.9219C19.73 32.493 17.9981 30.4195 18.0001 27.9999ZM17.6758 57.9999C18.4728 56.4074 19.1092 54.7395 19.5752 53.021C20.19 50.7482 20.501 48.4041 20.5001 46.0497V34.5247C21.7705 35.036 23.1689 35.1378 24.5 34.816V46.0497C24.5017 50.1981 25.4682 54.2893 27.3233 57.9999H17.6758Z" fill="#A07F5D"/>
<path d="M58 46.9999C59.104 46.9986 59.9987 46.1039 60 44.9999V38.9999C59.9987 37.8959 59.1041 37.0011 58 36.9998H32.0001C30.896 37.0011 30.0013 37.8959 30 38.9999V44.9999C30.0013 46.1039 30.896 46.9986 32.0001 46.9999H34.0001V49H32.0001C30.896 49.0013 30.0013 49.8959 30 51V53C30.0013 54.1041 30.896 54.9988 32.0001 55.0001H34.0001V59C34.0001 59.5523 34.4478 60 35.0001 60C35.5524 60 36 59.5523 36 59V55.0001H54V59C54 59.5523 54.4477 60 55 60C55.5523 60 55.9999 59.5523 55.9999 59V55.0001H58C59.104 54.9988 59.9987 54.1041 60 53V51C59.9987 49.896 59.1041 49.0013 58 49H55.9999V46.9999H58ZM58 51L58.001 53H32.0001V51H58ZM36 49V46.9999H54V49H36ZM32.0001 44.9999V38.9999H58.0001L58.0011 44.9999H32.0001Z" fill="#A07F5D"/>
</svg>
