<svg width="60" height="60" viewBox="0 0 60 60" fill="none" xmlns="http://www.w3.org/2000/svg">
<path d="M15.8437 9.93749H9.375C8.8125 9.93749 8.4375 10.3125 8.4375 10.875V20.625C8.4375 21.1875 8.8125 21.5625 9.375 21.5625H15.8437C16.4062 21.5625 16.7812 21.1875 16.7812 20.625V10.875C16.7812 10.3125 16.3125 9.93749 15.8437 9.93749ZM14.9062 19.6875H10.3125V11.8125H14.9062V19.6875Z" fill="#A07F5D"/>
<path d="M39 9.93749H32.5312C31.9687 9.93749 31.5937 10.3125 31.5937 10.875V20.625C31.5937 21.1875 31.9687 21.5625 32.5312 21.5625H39C39.5625 21.5625 39.9375 21.1875 39.9375 20.625V10.875C39.9375 10.3125 39.5625 9.93749 39 9.93749ZM38.0625 19.6875H33.4687V11.8125H38.0625V19.6875Z" fill="#A07F5D"/>
<path d="M27.4687 9.93749H21C20.4375 9.93749 20.0625 10.3125 20.0625 10.875V20.625C20.0625 21.1875 20.4375 21.5625 21 21.5625H27.4687C28.0312 21.5625 28.4062 21.1875 28.4062 20.625V10.875C28.4062 10.3125 27.9375 9.93749 27.4687 9.93749ZM26.5312 19.6875H21.9375V11.8125H26.5312V19.6875Z" fill="#A07F5D"/>
<path d="M50.625 9.93749H44.1563C43.5938 9.93749 43.2188 10.3125 43.2188 10.875V20.625C43.2188 21.1875 43.5938 21.5625 44.1563 21.5625H50.625C51.1875 21.5625 51.5625 21.1875 51.5625 20.625V10.875C51.5625 10.3125 51.1875 9.93749 50.625 9.93749ZM49.6875 19.6875H45.0938V11.8125H49.6875V19.6875Z" fill="#A07F5D"/>
<path d="M15.8437 24.75H9.375C8.8125 24.75 8.4375 25.125 8.4375 25.6875V35.4375C8.4375 36 8.8125 36.375 9.375 36.375H15.8437C16.4062 36.375 16.7812 36 16.7812 35.4375V25.6875C16.7812 25.125 16.3125 24.75 15.8437 24.75ZM14.9062 34.4062H10.3125V26.5312H14.9062V34.4062Z" fill="#A07F5D"/>
<path d="M39 24.75H32.5312C31.9687 24.75 31.5937 25.125 31.5937 25.6875V35.4375C31.5937 36 31.9687 36.375 32.5312 36.375H39C39.5625 36.375 39.9375 36 39.9375 35.4375V25.6875C39.9375 25.125 39.5625 24.75 39 24.75ZM38.0625 34.4062H33.4687V26.5312H38.0625V34.4062Z" fill="#A07F5D"/>
<path d="M27.4687 24.75H21C20.4375 24.75 20.0625 25.125 20.0625 25.6875V35.4375C20.0625 36 20.4375 36.375 21 36.375H27.4687C28.0312 36.375 28.4062 36 28.4062 35.4375V25.6875C28.4062 25.125 27.9375 24.75 27.4687 24.75ZM26.5312 34.4062H21.9375V26.5312H26.5312V34.4062Z" fill="#A07F5D"/>
<path d="M50.625 24.75H44.1563C43.5938 24.75 43.2188 25.125 43.2188 25.6875V35.4375C43.2188 36 43.5938 36.375 44.1563 36.375H50.625C51.1875 36.375 51.5625 36 51.5625 35.4375V25.6875C51.5625 25.125 51.1875 24.75 50.625 24.75ZM49.6875 34.4062H45.0938V26.5312H49.6875V34.4062Z" fill="#A07F5D"/>
<path d="M15.8437 39.4687H9.375C8.8125 39.4687 8.4375 39.8437 8.4375 40.4062V50.1562C8.4375 50.7187 8.8125 51.0938 9.375 51.0938H15.8437C16.4062 51.0938 16.7812 50.7187 16.7812 50.1562V40.4062C16.7812 39.8437 16.3125 39.4687 15.8437 39.4687ZM14.9062 49.2187H10.3125V41.3437H14.9062V49.2187Z" fill="#A07F5D"/>
<path d="M50.625 39.4687H44.1563C43.5938 39.4687 43.2188 39.8437 43.2188 40.4062V50.1562C43.2188 50.7187 43.5938 51.0938 44.1563 51.0938H50.625C51.1875 51.0938 51.5625 50.7187 51.5625 50.1562V40.4062C51.5625 39.8437 51.1875 39.4687 50.625 39.4687ZM49.6875 49.2187H45.0938V41.3437H49.6875V49.2187Z" fill="#A07F5D"/>
<path d="M59.0625 58.125H56.25V7.125H56.625C57.4688 7.125 58.2188 6.375 58.2188 5.53125V1.59375C58.2188 0.75 57.4688 0 56.625 0H3.375C2.4375 0 1.78125 0.75 1.78125 1.59375V5.53125C1.78125 6.375 2.53125 7.125 3.375 7.125H3.75V58.125H0.9375C0.375 58.125 0 58.5 0 59.0625C0 59.625 0.375 60 0.9375 60C17.25 60 37.2188 60 59.0625 60C59.625 60 60 59.625 60 59.0625C60 58.5 59.625 58.125 59.0625 58.125ZM3.65625 1.875H56.4375V5.25C44.4375 5.25 15.5625 5.25 3.65625 5.25V1.875ZM21.9375 58.125V41.3438H38.0625V58.125H21.9375ZM39.9375 58.125V40.4062C39.9375 39.8438 39.5625 39.4688 39 39.4688H21C20.4375 39.4688 20.0625 39.8438 20.0625 40.4062V58.125H5.625V7.125H54.375V58.125H39.9375Z" fill="#A07F5D"/>
</svg>
