<svg width="60" height="60" viewBox="0 0 60 60" fill="none" xmlns="http://www.w3.org/2000/svg">
<path d="M50.1525 4.84007H47.2239C46.7867 4.84007 46.5099 5.11506 46.5099 5.4189L46.5097 14.8239C46.5097 15.2145 46.976 15.4171 47.4568 15.4171C47.9231 15.4171 48.404 15.2146 48.404 14.8239V11.467H50.036C51.9593 11.467 53.4601 10.5554 53.4601 8.18247V8.09577C53.4601 5.72274 52.003 4.84007 50.1525 4.84007ZM51.5658 8.32724C51.5658 9.4558 50.983 9.99122 50.0359 9.99122H48.404V6.48963H50.0359C50.983 6.48963 51.5658 7.02505 51.5658 8.15361V8.32724Z" fill="#A07F5D"/>
<path d="M34.342 8.51684C31.5759 5.77003 27.8984 4.25733 23.9865 4.25733C20.0747 4.25733 16.3972 5.77003 13.6311 8.51684C13.2972 8.84827 13.2972 9.38567 13.6311 9.71721C13.9648 10.0486 14.506 10.0486 14.8397 9.71721C17.283 7.29111 20.5313 5.95495 23.9864 5.95495C27.4416 5.95495 30.69 7.29111 33.1331 9.71721C33.3001 9.88292 33.5189 9.96578 33.7376 9.96578C33.9562 9.96578 34.175 9.88292 34.342 9.71721C34.6758 9.38578 34.6758 8.84827 34.342 8.51684Z" fill="#A07F5D"/>
<path d="M30.8173 12.0185C27.0516 8.27906 20.9245 8.27906 17.1589 12.0185C16.825 12.3499 16.825 12.8875 17.1589 13.2189C17.4926 13.5503 18.0339 13.5503 18.3677 13.2189C21.4668 10.1415 26.5094 10.1415 29.6085 13.2189C29.7754 13.3846 29.994 13.4674 30.2128 13.4674C30.4315 13.4674 30.6503 13.3846 30.8173 13.2189C31.151 12.8875 31.151 12.3499 30.8173 12.0185Z" fill="#A07F5D"/>
<path d="M27.3479 15.4647C25.4959 13.6256 22.4824 13.6256 20.6304 15.4647C20.2965 15.7961 20.2965 16.3335 20.6304 16.6651C20.9641 16.9966 21.5054 16.9965 21.8392 16.6651C23.0247 15.4878 24.9536 15.4878 26.1392 16.6651C26.3061 16.8309 26.5249 16.9136 26.7436 16.9136C26.9622 16.9136 27.181 16.8308 27.3479 16.6651C27.6818 16.3335 27.6818 15.7962 27.3479 15.4647Z" fill="#A07F5D"/>
<path d="M25.3086 46.4261H22.6684C22.1963 46.4261 21.8136 46.8062 21.8136 47.2749C21.8136 47.7436 22.1963 48.1237 22.6684 48.1237H25.3086C25.7806 48.1237 26.1634 47.7436 26.1634 47.2749C26.1634 46.8062 25.7806 46.4261 25.3086 46.4261Z" fill="#A07F5D"/>
<path d="M59.2625 45.7136L58.9925 45.2686C57.975 43.5919 56.2825 42.4112 54.349 42.0292L52.1423 41.5934V20.7655H57.853C59.0289 20.7655 59.9854 19.8156 59.9854 18.648V2.11748C59.9854 0.949817 59.0288 0 57.853 0H41.2065C40.0306 0 39.0741 0.949933 39.0741 2.11748L39.074 14.1024H40.7835L40.7837 2.11748C40.7837 1.8859 40.9734 1.6975 41.2066 1.6975H57.8533C58.0865 1.6975 58.2762 1.8859 58.2762 2.11748V18.6482C58.2762 18.8797 58.0865 19.0681 57.8533 19.0681H41.2065C40.9733 19.0681 40.7835 18.8797 40.7835 18.6482V14.1024H39.074V18.6482C39.074 19.8158 40.0306 20.7656 41.2064 20.7656H47.6822V40.7128L46.5479 40.4888C44.9822 40.1796 43.4559 39.2413 42.4439 38.5623L36.7903 34.7697C34.6393 33.3268 32.1305 32.5641 29.5348 32.5641H19.1579C15.7049 32.5641 12.4562 33.8969 10.0101 36.3168C8.46231 37.8481 6.51396 38.8926 4.37565 39.3373L3.14846 39.5925C1.3241 39.9719 0 41.5909 0 43.4419V51.6623C0 52.6428 0.583005 53.5339 1.48546 53.9321L4.88998 55.4347C5.09588 56.5038 5.61455 57.5247 6.44634 58.3507C7.55177 59.4484 9.00383 59.9973 10.456 59.9973C11.9082 59.9973 13.3601 59.4484 14.4657 58.3507C15.1767 57.6446 15.6576 56.796 15.9113 55.8968H44.2982C44.5519 56.796 45.033 57.6446 45.744 58.3507C46.8151 59.4142 48.2389 60 49.7536 60C51.2683 60 52.6923 59.4143 53.7634 58.3507C54.4744 57.6446 54.9553 56.796 55.209 55.8968H56.8306C58.5782 55.8968 60 54.4848 60 52.7494V48.3469C59.9998 47.4189 59.7448 46.5084 59.2625 45.7136ZM49.3918 20.7655H50.4328V41.2558L49.3918 41.0502V20.7655ZM13.2568 57.1504C12.5087 57.8933 11.514 58.3025 10.4559 58.3025C9.39781 58.3025 8.40313 57.8933 7.65501 57.1504C6.4549 55.9587 6.18794 54.1865 6.85286 52.7358C6.85825 52.7242 6.86341 52.7124 6.8688 52.7008C6.88907 52.6577 6.91052 52.6151 6.93243 52.5728C6.94275 52.5527 6.95306 52.5328 6.96384 52.5131C6.98364 52.4763 7.00427 52.4397 7.02536 52.4034C7.03989 52.3784 7.05478 52.3536 7.06989 52.329C7.08946 52.297 7.10927 52.2651 7.12989 52.2335C7.14853 52.205 7.16775 52.1769 7.1872 52.1488C7.20642 52.121 7.22552 52.0931 7.24544 52.0657C7.26829 52.0344 7.29208 52.0037 7.31599 51.973C7.33462 51.949 7.35278 51.9248 7.372 51.9012C7.40013 51.8666 7.42954 51.8329 7.45884 51.7991C7.4756 51.7799 7.49165 51.7603 7.50876 51.7413C7.55235 51.6932 7.59724 51.6461 7.64341 51.5999C7.64739 51.5959 7.65102 51.5918 7.65501 51.5878C7.6638 51.5791 7.67306 51.5709 7.68196 51.5623C7.7211 51.5241 7.76048 51.4864 7.80067 51.4502C7.8111 51.4408 7.82212 51.4321 7.83266 51.4228C7.87274 51.3875 7.91305 51.3525 7.9543 51.3191C7.95817 51.316 7.96227 51.313 7.96614 51.3099C9.41492 50.1456 11.5045 50.147 12.9515 51.3146C12.9532 51.316 12.9549 51.3171 12.9567 51.3185C13.0008 51.3542 13.0441 51.3917 13.0871 51.4296C13.0948 51.4364 13.1028 51.4428 13.1104 51.4497C13.1601 51.4942 13.2089 51.5402 13.2567 51.5877C13.3082 51.6389 13.3579 51.6916 13.4062 51.745C13.4274 51.7685 13.4474 51.7926 13.468 51.8165C13.493 51.8456 13.5182 51.8748 13.5424 51.9044C13.5694 51.9378 13.5956 51.9718 13.6214 52.0058C13.6359 52.0248 13.6503 52.0439 13.6644 52.0631C13.6956 52.1059 13.7261 52.1492 13.7555 52.193C13.7606 52.2005 13.7655 52.2081 13.7704 52.2155C14.7759 53.7405 14.6048 55.8117 13.2568 57.1504ZM52.5544 57.1504C51.8062 57.8933 50.8115 58.3025 49.7534 58.3025C48.6953 58.3025 47.7007 57.8933 46.9526 57.1504C45.6044 55.8117 45.4333 53.7402 46.4389 52.2153C46.4437 52.2079 46.4485 52.2006 46.4534 52.1934C46.4828 52.1494 46.5134 52.106 46.5448 52.0629C46.5588 52.0439 46.5731 52.025 46.5875 52.0063C46.6134 51.9721 46.6396 51.938 46.6669 51.9043C46.6909 51.8749 46.7158 51.846 46.7407 51.8172C46.7615 51.7931 46.7818 51.7686 46.8032 51.745C46.8515 51.6916 46.9012 51.639 46.9527 51.5878C47.7009 50.8449 48.6954 50.4357 49.7535 50.4357C50.8116 50.4357 51.8063 50.8449 52.5544 51.5878C52.606 51.639 52.6557 51.6917 52.7039 51.7451C52.7253 51.7686 52.7453 51.7928 52.7659 51.8168C52.791 51.8458 52.8161 51.8749 52.8401 51.9044C52.8673 51.938 52.8934 51.9719 52.9193 52.006C52.9337 52.025 52.9482 52.044 52.9622 52.0632C52.9935 52.1061 53.0241 52.1493 53.0534 52.1932C53.0584 52.2006 53.0633 52.2081 53.0683 52.2155C54.0735 53.7404 53.9024 55.8118 52.5544 57.1504ZM58.2906 52.7494C58.2906 53.5489 57.6354 54.1993 56.8303 54.1993H55.4231C55.3896 52.9682 54.952 51.7937 54.1646 50.8307C54.1593 50.8242 54.1542 50.8174 54.1488 50.8109C54.1001 50.7519 54.0496 50.6941 53.9983 50.6366C53.9851 50.6219 53.9727 50.6068 53.9595 50.5921C53.9051 50.5327 53.8489 50.4744 53.7917 50.4169C53.7819 50.4071 53.773 50.3969 53.7632 50.3872C53.0268 49.656 52.1236 49.1507 51.1389 48.9063C50.6912 48.7951 50.2268 48.738 49.7534 48.738C49.3748 48.738 49.0018 48.7747 48.6385 48.8461C47.5488 49.0607 46.547 49.5896 45.7437 50.3872C45.7341 50.3967 45.7253 50.4067 45.7158 50.4164C45.6584 50.4742 45.6019 50.5327 45.5474 50.5924C45.5345 50.6064 45.5226 50.6211 45.5099 50.6353C45.4581 50.6933 45.407 50.7517 45.3579 50.8113C45.353 50.8172 45.3485 50.8234 45.3435 50.8294C44.5554 51.7925 44.1174 52.9677 44.0838 54.1994H16.1255C16.0919 52.9662 15.6529 51.7896 14.8628 50.8257C14.8592 50.8211 14.8557 50.8166 14.8521 50.8121C14.8005 50.7495 14.7469 50.6881 14.6924 50.6274C14.6824 50.6162 14.673 50.6047 14.6628 50.5935C14.5989 50.5236 14.5333 50.4547 14.4655 50.3873C14.1891 50.1129 13.891 49.8727 13.5768 49.6669C12.6339 49.0494 11.5449 48.7407 10.4559 48.7407C9.00383 48.7407 7.55165 49.2896 6.44622 50.3873C6.38306 50.45 6.32201 50.5144 6.26224 50.5796C6.24455 50.5989 6.22755 50.6185 6.21009 50.638C6.16791 50.6853 6.12642 50.7332 6.08599 50.7816C6.06806 50.8031 6.05013 50.8248 6.03255 50.8466C5.99072 50.8984 5.94994 50.9508 5.91009 51.0037C5.89767 51.0203 5.8849 51.0364 5.87283 51.0531C5.76572 51.1987 5.66634 51.3488 5.57447 51.5027C5.57189 51.507 5.56943 51.5115 5.56685 51.5158C5.52197 51.5915 5.47896 51.6683 5.43783 51.7459C5.43666 51.7482 5.43549 51.7505 5.4342 51.7527C5.13619 52.3158 4.9358 52.9249 4.84393 53.5567L2.17991 52.3809C1.89421 52.2547 1.70964 51.9726 1.70964 51.6623V43.4419C1.70964 42.3897 2.46233 41.4696 3.49932 41.2538L4.7265 40.9987C7.18978 40.4863 9.43414 39.2831 11.217 37.5193C13.3405 35.4184 16.1607 34.2615 19.1582 34.2615H29.5351C31.7885 34.2615 33.9664 34.9236 35.8337 36.1761L41.4873 39.9688C42.6217 40.7299 44.3462 41.7845 46.2147 42.1536L54.0158 43.6941C55.4786 43.9831 56.7588 44.8762 57.5286 46.1447L57.7986 46.5897C58.1206 47.12 58.2906 47.7277 58.2906 48.3469V52.7494Z" fill="#A07F5D"/>
<path d="M12.2922 52.5469C11.8019 52.0602 11.1504 51.7922 10.4572 51.7922C9.76405 51.7922 9.11237 52.0603 8.62229 52.5469C8.13221 53.0336 7.86222 53.6808 7.86222 54.3691C7.86222 55.0574 8.13221 55.7046 8.62229 56.1912C9.11237 56.6779 9.76405 56.946 10.4573 56.946C11.1505 56.946 11.8022 56.678 12.2922 56.1912C13.304 55.1865 13.304 53.5517 12.2922 52.5469ZM11.0833 54.9909C10.9161 55.1569 10.6937 55.2484 10.4572 55.2484C10.2206 55.2484 9.9983 55.1569 9.83108 54.9907C9.66385 54.8247 9.57162 54.6039 9.57162 54.369C9.57162 54.134 9.66373 53.9133 9.83108 53.7472C9.9983 53.5811 10.2206 53.4896 10.4572 53.4896C10.6937 53.4896 10.9161 53.581 11.0833 53.7472C11.4286 54.0901 11.4286 54.648 11.0833 54.9909Z" fill="#A07F5D"/>
<path d="M51.5884 52.5471C51.0983 52.0603 50.4467 51.7922 49.7534 51.7922C49.0602 51.7922 48.4087 52.0602 47.9184 52.5469C46.9067 53.5517 46.9067 55.1865 47.9184 56.1912C48.4085 56.678 49.0602 56.946 49.7534 56.946C50.4467 56.946 51.0982 56.678 51.5883 56.1913C52.0785 55.7047 52.3484 55.0575 52.3484 54.3692C52.3484 53.6809 52.0785 53.0337 51.5884 52.5471ZM50.3795 54.991C50.2123 55.157 49.99 55.2485 49.7534 55.2485C49.5169 55.2485 49.2945 55.157 49.1273 54.991C48.782 54.6481 48.782 54.0903 49.1273 53.7474C49.2945 53.5814 49.5169 53.4898 49.7534 53.4898C49.99 53.4898 50.2123 53.5813 50.3796 53.7474C50.5469 53.9135 50.639 54.1342 50.639 54.3692C50.639 54.6039 50.547 54.8248 50.3795 54.991Z" fill="#A07F5D"/>
<path fill-rule="evenodd" clip-rule="evenodd" d="M42.061 41.7167C41.6912 41.5146 41.3263 41.2932 40.9766 41.0586L35.3229 37.2659C33.607 36.1147 31.6055 35.5063 29.5348 35.5063H19.1578C16.4033 35.5063 13.8116 36.5696 11.8599 38.5002C10.8568 39.4927 9.71402 40.3229 8.46328 40.9678C7.72359 41.3493 7.2641 42.1 7.2641 42.9271C7.2641 44.145 8.26183 45.1358 9.48831 45.1358H42.0784C42.781 45.1358 43.3527 44.5681 43.3527 43.8704C43.3527 42.9769 42.8577 42.1516 42.061 41.7167ZM8.97351 42.9269C8.97351 43.2088 9.20448 43.4382 9.48831 43.4382H21.4809V37.2038H19.1576C16.8586 37.2038 14.6953 38.0913 13.0664 39.7028C11.94 40.8173 10.6562 41.7499 9.25101 42.4744C9.0798 42.5626 8.97351 42.736 8.97351 42.9269ZM23.1906 37.204V43.4383H41.5029C41.4351 43.3437 41.345 43.2629 41.2374 43.2041C40.8219 42.9772 40.4123 42.7287 40.0198 42.4653L34.3661 38.6726C32.9339 37.7118 31.2633 37.204 29.5349 37.204H23.1906Z" fill="#A07F5D"/>
</svg>
