<svg width="60" height="60" viewBox="0 0 60 60" fill="none" xmlns="http://www.w3.org/2000/svg">
<path d="M1.70887 60C1.32911 60 0.949367 59.6203 0.949367 59.2405V20.6962H0V19.1772H0.949367V16.7088H0V15.1899H0.949367V13.1013H2.46836V15.1899H4.93671V13.1013H6.45569V15.1899H7.59493V16.7088H6.64557V19.1772H7.59493V20.6962H6.64557V28.2912H27.3417V20.6962H26.3924V19.1772H27.3417V16.7088H26.3924V15.1899H27.3417V13.1013H28.8608V15.1899H31.3291V13.1013H32.8481V15.1899H33.7975V16.7088H32.8481V19.1772H33.7975V20.6962H32.8481V28.2912H39.3037V10.8228C39.3037 10.443 39.6836 10.0633 40.0633 10.0633H40.2532V7.59493H18.6076V10.2532H18.7975C19.5569 10.443 20.1265 11.2025 20.5063 11.962C20.6963 12.7215 20.6963 13.481 20.3164 14.0507C20.1265 14.8101 19.5569 15.1899 18.7975 15.5696H18.6076V18.2279H20.8861C21.2659 18.2279 21.6456 18.6076 21.6456 18.9874V22.0253V22.2151L20.6963 25.2532C20.5063 25.6329 20.3164 25.8228 19.9367 25.8228H15.9493C15.5696 25.8228 15.3797 25.6329 15.1899 25.2532L14.2405 22.2151V22.0253V18.9874C14.2405 18.6076 14.6203 18.2279 15 18.2279H17.0887V15.5696C15.9493 15.1899 15.1899 14.2405 15.1899 13.1013H16.7088C16.8988 13.6709 17.2785 14.0507 17.8481 14.0507C18.6076 14.0507 19.1772 13.481 19.1772 12.7215C19.1772 11.962 18.6076 11.3924 17.8481 11.3924C17.4684 11.5823 17.0887 11.2025 17.0887 10.8228V7.59493H7.78481C7.40507 7.59493 7.02532 7.2152 7.02532 6.83545V2.8481C7.02532 2.46836 7.40507 2.08861 7.78481 2.08861H51.4557V0.759493C51.4557 0.379747 51.8355 0 52.2152 0H58.2912C58.6709 0 59.0507 0.379747 59.0507 0.759493V8.92405C59.0507 9.3038 58.6709 9.68354 58.2912 9.68354H52.2152C51.8355 9.68354 51.4557 9.3038 51.4557 8.92405V7.59493H45.9493V10.0633H46.1392C46.5189 10.0633 46.8987 10.443 46.8987 10.8228V28.2912H53.3544V20.6962H52.4051V19.1772H53.3544V16.7088H52.4051V15.1899H53.3544V13.1013H55.0633V15.1899H57.5316V13.1013H59.0507V15.1899H60V16.7088H59.0507V19.1772H60V20.6962H59.0507V59.2405C59.0507 59.6203 58.6709 60 58.2912 60H1.70887ZM2.46836 58.481H57.3417V56.0126H2.46836V58.481ZM55.0633 54.4937H57.5316V46.8987H55.0633V54.4937ZM46.8987 54.4937H53.3544V46.8987H46.8987V54.4937ZM40.8228 54.4937H43.8608L45.1899 53.1646L41.0127 48.9874V54.4937H40.8228ZM32.8481 54.4937H39.3037V46.8987H32.8481V54.4937ZM28.8608 54.4937H31.3291V46.8987H28.8608V54.4937ZM6.64557 54.4937H27.3417V46.8987H6.64557V54.4937ZM2.46836 54.4937H4.93671V46.8987H2.46836V54.4937ZM45.3797 51.4557V47.0887H41.0127L45.3797 51.4557ZM2.46836 45.3797H57.3417V42.9114H2.46836V45.3797ZM55.0633 41.3924H57.5316V33.7975H55.0633V41.3924ZM46.8987 41.3924H53.3544V33.7975H46.8987V41.3924ZM40.8228 41.3924H45.1899L40.8228 37.0253V41.3924ZM32.8481 41.3924H39.3037V33.7975H32.8481V41.3924ZM28.8608 41.3924H31.3291V33.7975H28.8608V41.3924ZM6.64557 41.3924H27.3417V33.7975H6.64557V41.3924ZM2.46836 41.3924H4.93671V33.7975H2.46836V41.3924ZM41.2025 35.1266L45.3797 39.3038V33.7975H42.3417L41.2025 35.1266ZM2.46836 32.2784H57.3417V29.8101H2.46836V32.2784ZM55.0633 28.2912H57.5316V24.6836H55.0633V28.2912ZM40.8228 28.2912H44.2405L40.8228 24.8734V28.2912ZM28.8608 28.2912H31.3291V24.6836H28.8608V28.2912ZM2.46836 28.2912H4.93671V24.6836H2.46836V28.2912ZM41.2025 22.9747L45.3797 27.152V18.7975L41.2025 22.9747ZM15.7595 21.8354L16.5189 24.3038H19.3671L20.1265 21.8354V19.7468H15.7595V21.8354ZM55.0633 23.1646H57.5316V20.6962H55.0633V23.1646ZM28.8608 23.1646H31.3291V20.6962H28.8608V23.1646ZM2.46836 23.1646H4.93671V20.6962H2.46836V23.1646ZM40.8228 21.0759L45 16.8987L40.8228 12.7215V21.0759ZM55.0633 19.1772H57.5316V16.7088H55.0633V19.1772ZM28.8608 19.1772H31.3291V16.7088H28.8608V19.1772ZM2.46836 19.1772H4.93671V16.7088H2.46836V19.1772ZM45.3797 15V11.5823H41.962L45.3797 15ZM41.962 10.0633H44.4304V7.59493H41.962V10.0633ZM52.9747 8.16455H57.5316V1.51899H52.9747V8.16455ZM48.038 6.07595H51.4557V3.60759H50.5063L48.038 6.07595ZM41.962 6.07595H45.7595L48.2279 3.60759H44.4304L41.962 6.07595ZM35.8861 6.07595H39.6836L42.1519 3.60759H38.3544L35.8861 6.07595ZM29.8101 6.07595H33.6076L36.076 3.60759H32.2785L29.8101 6.07595ZM23.7341 6.07595H27.5316L30 3.60759H26.2025L23.7341 6.07595ZM17.8481 6.07595H21.6456L24.1139 3.60759H20.3164L17.8481 6.07595ZM11.7721 6.07595H15.5696L18.038 3.60759H14.2405L11.7721 6.07595ZM8.54431 6.07595H9.49367L11.962 3.60759H8.54431V6.07595Z" fill="#A07F5D"/>
</svg>
