<svg width="60" height="60" viewBox="0 0 60 60" fill="none" xmlns="http://www.w3.org/2000/svg">
<path d="M1.00022 60H49.0001C49.5526 60 50.0003 59.5523 50.0003 59.0002V49.9999H57C57.5525 49.9999 58.0002 49.5522 58.0002 49.0002V38.9996C58.0002 38.4476 57.5525 37.9999 57 37.9999H50.0003V28.9996C50.0003 28.447 49.5526 27.9993 49.0001 27.9993H47.1649C47.3059 27.3456 47.1567 26.6626 46.7561 26.127L42.2375 20.1037L44.324 18.5385C45.251 17.8445 45.7687 16.7322 45.7033 15.5758L45.603 13.7749C45.5755 13.2865 45.7944 12.8168 46.1857 12.5234L48.2718 10.9587L49.1498 12.1288C49.3086 12.3407 49.5453 12.4813 49.808 12.5188C49.8547 12.5252 49.9019 12.5289 49.9495 12.5284C50.166 12.5289 50.3766 12.4584 50.5496 12.3284L58.8004 6.13882C60.1251 5.14499 60.3939 3.26492 59.4 1.93966L58.8443 1.19807C57.8491 -0.125352 55.97 -0.39315 54.6443 0.599303L46.3945 6.7884C45.9527 7.11983 45.863 7.74698 46.1944 8.18873L47.072 9.3588L44.9859 10.9239C44.059 11.6179 43.5408 12.7298 43.6067 13.8862L43.7065 15.6871C43.7344 16.1755 43.5156 16.6456 43.1242 16.9386L41.0382 18.5037L36.5191 12.4804C36.0462 11.8399 35.2781 11.487 34.4839 11.5451C33.7263 11.6001 33.0493 12.0395 32.6899 12.7092L24.473 27.9993H1.00022C0.447694 27.9993 0 28.447 0 28.9996V38.9996C0 39.5522 0.447694 39.9999 1.00022 39.9999H7.9999V47.9999H1.00022C0.447694 47.9999 0 48.4476 0 49.0002V59.0002C0 59.5523 0.447694 60 1.00022 60ZM55.8446 2.19876C56.2859 1.86734 56.9125 1.9566 57.2444 2.39835L57.8002 3.13995C58.1311 3.5817 58.0414 4.20793 57.6001 4.53936L50.1491 10.1292L48.3935 7.78818L55.8446 2.19876ZM18.0002 49.9999H32.0001V58H18.0002V49.9999ZM26.0001 39.9999H40V47.9999H26.0001V39.9999ZM48.0003 58H34V49.9999H48.0003V58ZM56.0002 47.9999H41.9999V39.9999H56.0002V47.9999ZM48.0003 37.9999H34V32.1765L44.2357 29.9994H48.0003V37.9999ZM34.4523 13.6568C34.4862 13.5868 34.5567 13.5419 34.6345 13.5396L34.6542 13.5387C34.7604 13.5406 34.8588 13.5932 34.9192 13.6802L39.4374 19.7036L35.312 22.7986C34.8703 23.13 34.7805 23.7567 35.112 24.1989C35.4434 24.6407 36.0701 24.7299 36.5123 24.3989L40.6376 21.3039L45.1562 27.3273C45.2281 27.4152 45.2492 27.5338 45.2112 27.6404C45.1874 27.7146 45.1246 27.7691 45.0477 27.7828L25.2087 32.0017C25.0855 32.0209 24.9619 31.9682 24.891 31.8657C24.8113 31.7696 24.7953 31.6359 24.8498 31.5233L34.4523 13.6568ZM23.2915 33.066C23.8244 33.7989 24.739 34.1482 25.6248 33.9577L32.0001 32.6018V37.9999H18.0002V29.9994H23.3977L23.0878 30.5761C22.6594 31.374 22.7395 32.3486 23.2915 33.066ZM1.99998 33.9998H3.99995C4.55247 33.9998 5.00017 33.5521 5.00017 32.9996C5.00017 32.4475 4.55247 31.9998 3.99995 31.9998H1.99998V29.9994H16.0003V37.9999H1.99998V33.9998ZM9.99988 39.9999H24.0002V47.9999H9.99988V39.9999ZM1.99998 49.9999H16.0003V58H1.99998V49.9999Z" fill="#A07F5D"/>
</svg>
