<svg width="60" height="60" viewBox="0 0 60 60" fill="none" xmlns="http://www.w3.org/2000/svg">
<path d="M60 2C60 0.895432 59.1046 0 58 0H2C0.895432 0 0 0.895431 0 2V58C0 59.1046 0.895431 60 2 60H58C59.1046 60 60 59.1046 60 58V2ZM58.1538 58.1538H31.3846V31.3846V29.5385V1.84611H58.1538V29.5385V31.3846V58.1538ZM29.5385 58.1538H1.84615V31.3846V29.5385V1.99529L29.5385 1.84611V29.5385V31.3846V58.1538Z" fill="#A07F5D"/>
<path d="M1.84615 31.3846H29.5385V29.5385H1.84615V31.3846Z" fill="#A07F5D"/>
<path d="M58.1538 29.5385H31.3846V31.3846H58.1538V29.5385Z" fill="#A07F5D"/>
</svg>
