<svg width="60" height="60" viewBox="0 0 60 60" fill="none" xmlns="http://www.w3.org/2000/svg">
<path d="M20.4855 32.2399C20.971 32.2399 21.3644 31.8465 21.3644 31.361C21.3644 30.8755 20.971 30.4821 20.4855 30.4821H16.518V27.8463C16.518 27.3608 16.1246 26.9674 15.6391 26.9674C15.1536 26.9674 14.7602 27.3608 14.7602 27.8463V30.4821H11.6714V20.332C11.6714 19.6853 11.1691 19.1788 10.5277 19.1788H1.51527C0.789414 19.1788 0.220703 19.8073 0.220703 20.6095V58.5693C0.220703 59.3715 0.789414 60 1.51527 60H20.0698C20.7836 60 21.3644 59.3582 21.3644 58.5693V49.4564C21.3644 48.9709 20.971 48.5775 20.4855 48.5775C20 48.5775 19.6066 48.9709 19.6066 49.4564V58.2422H1.97863V20.9366H9.91375V23.1484H6.94492C6.45941 23.1484 6.06601 23.5418 6.06601 24.0273C6.06601 24.5128 6.45941 24.9062 6.94492 24.9062H9.91363V28.0977H7.24996C6.76445 28.0977 6.37105 28.4911 6.37105 28.9766C6.37105 29.4621 6.76445 29.8555 7.24996 29.8555H9.91363V37.6214C9.91363 38.1069 10.307 38.5003 10.7925 38.5003H19.6066V45.3698C19.6066 45.8554 20 46.2488 20.4855 46.2488C20.971 46.2488 21.3644 45.8554 21.3644 45.3698V37.8956C21.3644 37.1834 20.7516 36.7425 20.1838 36.7425H16.518V32.2399H20.4855ZM14.7602 36.7425H11.6714V32.2399H14.76L14.7602 36.7425Z" fill="#A07F5D"/>
<path d="M50.4563 40.6506V28.3587C50.4563 28.3583 50.4563 28.3579 50.4563 28.3575V16.0656C50.4563 16.0652 50.4563 16.0648 50.4563 16.0644V10.7972H52.1682C52.9669 10.7972 53.6168 10.1479 53.6168 9.34969V9.26883H58.1709C58.5602 9.26883 58.9174 9.14274 59.1956 8.93344C59.246 8.89969 59.2937 8.86031 59.3377 8.81496C59.3477 8.80477 59.3562 8.79375 59.3656 8.7832C59.6205 8.52574 59.7771 8.18684 59.7771 7.81477V2.98242C59.7771 2.18051 59.0566 1.52824 58.1709 1.52824H53.6169V1.4475C53.6169 0.649336 52.9671 0 52.1683 0H40.9906C40.1919 0 39.5419 0.649336 39.5419 1.4475V1.52824H28.1016C28.1006 1.52824 28.0996 1.52824 28.0986 1.52824H14.7875C13.9 1.52824 13.178 2.18051 13.178 2.98242V7.81465C13.178 8.61645 13.9 9.26871 14.7875 9.26871H18.9696V12.2986L15.7182 15.7543H14.915C14.1458 15.7543 13.52 16.3797 13.52 17.1483V21.2583C13.52 22.0287 14.1458 22.6555 14.915 22.6555H24.7789C25.55 22.6555 26.1773 22.0287 26.1773 21.2583V17.1483C26.1773 16.3797 25.55 15.7543 24.7789 15.7543H23.979L20.7275 12.2986V9.26883H39.5421V9.34969C39.5421 10.1479 40.192 10.7972 40.9907 10.7972H42.7025V45.9188H39.9481C38.7298 45.9188 37.7387 46.9086 37.7387 48.1254V53.8579H36.7743C35.0773 53.8579 33.6966 55.2363 33.6966 56.9306V58.5325C33.6966 59.3416 34.3571 59.9999 35.1689 59.9999H58.2683C59.0782 59.9999 59.737 59.3416 59.737 58.5325V56.9306C59.737 55.2363 58.3578 53.8579 56.6628 53.8579H55.6985V48.1254C55.6985 46.9086 54.7057 45.9188 53.4855 45.9188H50.4563V40.6518C50.4563 40.6514 50.4563 40.6511 50.4563 40.6506ZM58.0194 3.28641V6.30984L54.9051 3.28629L58.0194 3.28641ZM53.6169 4.48547L56.7331 7.51102H53.6169V4.48547ZM14.9358 7.51055V3.28606H15.4231L19.7731 7.51066L14.9358 7.51055ZM24.4194 17.5123V20.8978H15.2777V17.5123H24.4194ZM21.5653 15.7545H18.1317L19.8485 13.9297L21.5653 15.7545ZM17.9462 3.28606H25.9337L21.9399 7.16473L17.9462 3.28606ZM24.1066 7.5109L28.1002 3.63234L32.094 7.51102L24.1066 7.5109ZM30.2667 3.28606H38.2543L34.2604 7.16473L30.2667 3.28606ZM36.427 7.51102L39.5419 4.48594V7.51102H36.427ZM53.4854 47.6767C53.7364 47.6767 53.9405 47.878 53.9405 48.1255V53.858H48.8233C48.3378 53.858 47.9444 54.2514 47.9444 54.7369C47.9444 55.2224 48.3378 55.6158 48.8233 55.6158H56.6627C57.3885 55.6158 57.9791 56.2056 57.9791 56.9307V58.2422H35.4544V56.9307C35.4544 56.2056 36.0466 55.6158 36.7743 55.6158H44.5668C45.0523 55.6158 45.4457 55.2224 45.4457 54.7369C45.4457 54.2514 45.0523 53.858 44.5668 53.858H39.4965V48.1255C39.4965 47.8822 39.7034 47.6767 39.9481 47.6767H53.4854ZM48.3496 16.0649L44.4603 20.0518V12.0778L48.3496 16.0649ZM45.6665 10.7972H48.6985V13.9054L45.6665 10.7972ZM48.6985 18.2244V26.1983L44.8091 22.2113L48.6985 18.2244ZM48.3496 28.358L44.4603 32.345V24.3709L48.3496 28.358ZM48.6985 30.5176V38.4916L44.8092 34.5046L48.6985 30.5176ZM48.3496 40.6513L44.4603 44.6382V36.6642L48.3496 40.6513ZM48.6985 42.8108V45.9189H45.6665L48.6985 42.8108ZM43.5929 9.03938C43.5923 9.03938 43.5916 9.03938 43.5909 9.03938H41.2996V1.75781H51.8589V9.03938H43.5929Z" fill="#A07F5D"/>
<path d="M17.4997 42.4403C17.4997 41.7158 16.9114 41.1266 16.1885 41.1266H5.39619C4.67127 41.1266 4.08158 41.7158 4.08158 42.4403V46.0253C4.08158 46.7497 4.67127 47.3389 5.39619 47.3389H16.1885C16.9115 47.3389 17.4997 46.7497 17.4997 46.0253V42.4403ZM9.9133 45.5811H5.8394V42.8844H9.91342L9.9133 45.5811ZM15.7419 45.5811H11.6711V42.8844H15.7417L15.7419 45.5811Z" fill="#A07F5D"/>
<path d="M16.1883 49.9654H5.39619C4.67127 49.9654 4.08158 50.5546 4.08158 51.279V54.864C4.08158 55.5884 4.67127 56.1776 5.39619 56.1776H16.1885C16.9115 56.1776 17.4997 55.5884 17.4997 54.864V51.279C17.4997 50.5546 16.9114 49.9654 16.1883 49.9654ZM9.9133 54.4198H5.8394V51.7232H9.91342L9.9133 54.4198ZM15.7419 54.4198H11.6711V51.7232H15.7417L15.7419 54.4198Z" fill="#A07F5D"/>
</svg>
