<svg width="193" height="194" viewBox="0 0 193 194" fill="none" xmlns="http://www.w3.org/2000/svg">
<path d="M111.34 69.074L142.723 37.6662C146.842 33.5448 148.972 28.2865 148.972 22.4597C148.972 16.775 146.7 11.3745 142.723 7.25314C138.605 3.13175 133.351 1 127.529 1C121.848 1 116.452 3.27387 112.334 7.25314L111.34 8.24796L110.346 7.25314C106.227 3.13175 100.973 1 95.1509 1C89.4706 1 84.0743 3.27387 79.9561 7.25314C75.8379 11.3745 73.7078 16.6329 73.7078 22.4597C73.7078 28.1443 75.9799 33.5448 79.9561 37.6662L111.34 69.074ZM89.6126 16.775C91.1747 15.2117 93.1628 14.359 95.2929 14.359C97.423 14.359 99.4112 15.2117 100.973 16.775L111.482 27.2916L121.99 16.775C123.552 15.2117 125.541 14.359 127.671 14.359C129.801 14.359 131.789 15.2117 133.351 16.775C134.913 18.3383 135.765 20.3279 135.765 22.4597C135.765 24.5914 134.913 26.581 133.351 28.1443L111.482 50.0303L89.6126 28.1443C88.0506 26.581 87.1985 24.5914 87.1985 22.4597C87.1985 20.3279 88.0506 18.3383 89.6126 16.775ZM54.8208 61.2576C49.1405 61.2576 43.7442 63.5315 39.626 67.5107L38.632 68.5055L37.6379 67.5107C33.5197 63.3893 28.2654 61.2576 22.4431 61.2576C16.7628 61.2576 11.3665 63.5315 7.24832 67.5107C3.1301 71.6321 1 76.8904 1 82.7172C1 88.544 3.27211 93.8024 7.24832 97.9237L38.632 129.332L70.0156 97.9237C74.1338 93.8024 76.2639 88.544 76.2639 82.7172C76.2639 76.8904 73.9918 71.6321 70.0156 67.5107C65.8974 63.5315 60.5011 61.2576 54.8208 61.2576ZM60.5011 88.4019L38.632 110.288L16.7628 88.4019C15.2007 86.8386 14.3487 84.849 14.3487 82.7172C14.3487 80.5855 15.2007 78.5958 16.7628 77.0326C18.3249 75.4693 20.313 74.6166 22.4431 74.6166C24.5732 74.6166 26.5613 75.4693 28.1234 77.0326L38.632 87.5492L49.1405 77.0326C50.7026 75.4693 52.6907 74.6166 54.8208 74.6166C56.9509 74.6166 58.939 75.4693 60.5011 77.0326C62.0632 78.5958 62.9152 80.5855 62.9152 82.7172C62.7732 84.9911 62.0632 86.9807 60.5011 88.4019ZM182.344 137.006C176.095 130.753 167.859 127.342 159.196 127.342H151.528V119.668C151.528 110.856 148.12 102.614 141.871 96.5026C135.623 90.2494 127.387 86.8386 118.724 86.8386C109.92 86.8386 101.683 90.2494 95.5769 96.5026C89.3286 102.756 85.9205 110.999 85.9205 119.668V193H159.196C168.001 193 176.237 189.589 182.344 183.336C188.592 177.083 192 168.84 192 160.171C192 151.36 188.592 143.117 182.344 137.006ZM172.829 173.814C169.137 177.509 164.309 179.499 159.196 179.499H99.4112V119.668C99.4112 114.551 101.399 109.577 105.091 106.024C108.784 102.329 113.612 100.34 118.724 100.34C123.836 100.34 128.807 102.329 132.357 106.024C136.049 109.719 138.037 114.551 138.037 119.668V140.843H159.196C164.309 140.843 169.279 142.833 172.829 146.528C176.521 150.223 178.509 155.055 178.509 160.171C178.509 165.287 176.521 170.261 172.829 173.814ZM122.842 144.254C116.452 144.112 111.482 148.802 111.34 154.913C111.198 161.166 115.884 166.14 121.99 166.282C128.381 166.424 133.351 161.734 133.351 155.339C133.493 149.512 128.807 144.396 122.842 144.254Z" stroke="white" stroke-width="2" stroke-miterlimit="10"/>
</svg>
