<svg width="41" height="44" viewBox="0 0 41 44" fill="none" xmlns="http://www.w3.org/2000/svg">
<path d="M39.5765 6.67408L33.4478 0.592281C33.0628 0.210375 32.5511 0 32.0068 0H6.2029C5.07928 0 4.16506 0.907242 4.16506 2.02228V22.0443H2.73202C1.22555 22.0443 0 23.2606 0 24.7555V37.1554C0 38.6504 1.22555 39.8667 2.73202 39.8667H24.2518C25.3755 39.8667 26.2897 38.9594 26.2897 37.8444V28.2C26.2897 27.0849 25.3754 26.1777 24.2518 26.1777H2.73202C1.94181 26.1777 1.29898 25.5398 1.29898 24.7556C1.29898 23.9714 1.94181 23.3335 2.73202 23.3335H4.16506V24.067C4.16506 24.4229 4.45586 24.7115 4.81455 24.7115C5.17324 24.7115 5.46404 24.4229 5.46404 24.067V2.02228C5.46404 1.61795 5.79554 1.28906 6.2029 1.28906H31.2384V7.53337C31.2384 8.26865 31.8411 8.86686 32.582 8.86686H38.8744V41.9777C38.8744 42.3821 38.5429 42.7109 38.1355 42.7109H6.2029C5.79545 42.7109 5.46404 42.3821 5.46404 41.9777C5.46404 41.6218 5.17324 41.3332 4.81455 41.3332C4.45586 41.3332 4.16506 41.6218 4.16506 41.9777C4.16506 43.0928 5.07928 44 6.2029 44H38.1355C39.2592 44 40.1734 43.0928 40.1734 41.9777V8.10408C40.1735 7.56396 39.9615 7.05607 39.5765 6.67408ZM2.73202 27.4667H24.2518C24.6593 27.4667 24.9907 27.7957 24.9907 28.2V37.8445C24.9907 38.2488 24.6592 38.5777 24.2518 38.5777H2.73202C1.94181 38.5777 1.29898 37.9397 1.29898 37.1555V27.063C1.71578 27.319 2.2068 27.4667 2.73202 27.4667ZM32.5373 7.53337V1.5119L38.6501 7.5778H32.582C32.5574 7.5778 32.5373 7.55786 32.5373 7.53337Z" fill="#A07F5D"/>
<path d="M18.4044 36.4019C18.7631 36.4019 19.0539 36.1134 19.0539 35.7574V33.6147H20.4612C20.8199 33.6147 21.1107 33.3261 21.1107 32.9702C21.1107 32.6142 20.8199 32.3257 20.4612 32.3257H19.0539V30.9312H20.6387C20.9974 30.9312 21.2882 30.6426 21.2882 30.2866C21.2882 29.9306 20.9974 29.6421 20.6387 29.6421H18.4044C18.0457 29.6421 17.7549 29.9306 17.7549 30.2866V35.7573C17.7549 36.1133 18.0457 36.4019 18.4044 36.4019Z" fill="#A07F5D"/>
<path d="M11.5773 36.1537C11.699 36.2735 11.8635 36.3407 12.0349 36.3407H12.0373C12.0835 36.3406 13.1716 36.3364 13.6063 36.3289C15.2112 36.301 16.3761 34.9104 16.3761 33.0222C16.3761 31.0373 15.2405 29.7036 13.5503 29.7036H12.024C11.8515 29.7036 11.6862 29.7717 11.5643 29.8928C11.4425 30.014 11.3742 30.1782 11.3745 30.3493V30.3536V30.3536V35.6093C11.3745 35.6536 11.379 35.6968 11.3876 35.7386C11.398 35.8949 11.4647 36.0427 11.5773 36.1537ZM13.5503 30.9927C14.6761 30.9927 15.0771 32.041 15.0771 33.0222C15.0771 34.3982 14.327 35.0272 13.5836 35.04C13.3769 35.0436 13.0083 35.0464 12.6822 35.0484C12.6801 34.4161 12.6757 31.6504 12.6746 30.9927H13.5503Z" fill="#A07F5D"/>
<path d="M6.18221 36.4223C6.5409 36.4223 6.8317 36.1338 6.8317 35.7778V34.025C7.15419 34.0233 7.52085 34.0216 7.72851 34.0216C8.96774 34.0216 9.97592 33.0349 9.97592 31.8219C9.97592 30.6089 8.96774 29.6221 7.72851 29.6221H6.18221C6.00961 29.6221 5.84412 29.6903 5.72219 29.8116C5.60078 29.9324 5.5328 30.0961 5.5328 30.2666H5.53271V35.7777C5.53271 36.1338 5.82351 36.4223 6.18221 36.4223ZM7.72851 30.9112C8.24265 30.9112 8.67694 31.3284 8.67694 31.822C8.67694 32.3156 8.24265 32.7327 7.72851 32.7327C7.52223 32.7327 7.16016 32.7343 6.83888 32.7359C6.83715 32.4067 6.83455 31.2557 6.8336 30.9113H7.72851V30.9112Z" fill="#A07F5D"/>
<path d="M18.3501 18.6884C16.7538 19.1884 15.1154 19.8805 14.2415 20.7757C13.5204 21.5143 13.3897 22.3713 13.8829 23.1269C14.2176 23.6397 14.6777 23.9078 15.195 23.9078C15.3936 23.9078 15.6007 23.8682 15.8122 23.788C16.5754 23.4983 17.3997 22.6745 18.3321 21.2691C18.6331 20.8155 18.9378 20.3113 19.2412 19.7658C19.3516 19.7336 19.4642 19.7015 19.5794 19.6696C21.4123 19.1607 23.486 18.7913 25.306 18.6369C26.4154 19.7015 27.5621 20.531 28.5397 20.7573C29.6152 21.0062 30.4678 20.5182 30.82 19.4517C31.0333 18.8057 30.7877 18.1966 30.1629 17.8223C29.5205 17.4374 28.4042 17.2516 26.8457 17.2693C26.5137 17.273 26.1634 17.2864 25.7988 17.3089C25.0986 16.5923 24.3702 15.736 23.6686 14.7902C23.1251 14.0576 22.6393 13.3245 22.2285 12.6276C22.2732 12.4749 22.3156 12.3242 22.3559 12.1763C22.7999 10.5423 22.9583 9.29133 22.8265 8.45791C22.6363 7.25436 21.8535 7.08343 21.5258 7.06589C20.41 7.006 19.6584 7.56468 19.5154 8.56026C19.4018 9.35114 19.6698 10.4393 20.312 11.7943C20.4647 12.1164 20.6359 12.4484 20.8239 12.7874C20.7538 13.0105 20.6779 13.2427 20.5956 13.4842C19.9968 15.242 19.1859 17.115 18.3501 18.6884ZM15.2311 22.6153C15.1847 22.621 15.1066 22.6307 14.9731 22.4261C14.8644 22.2596 14.8585 22.1339 14.9513 21.9624C15.1681 21.5612 15.9084 20.9983 17.341 20.4169C16.3412 21.9559 15.5939 22.5703 15.2311 22.6153ZM29.5964 19.0065C29.5955 19.0145 29.5929 19.0287 29.5857 19.0504C29.4235 19.5416 29.2055 19.5879 28.8348 19.5021C28.3822 19.3973 27.8074 19.0655 27.1662 18.5577C28.9023 18.5715 29.508 18.8819 29.5964 19.0065ZM20.8013 8.74228C20.8278 8.55803 20.8576 8.35083 21.3517 8.35083C21.3828 8.35083 21.4158 8.35169 21.4506 8.35332C21.5985 8.53216 21.6746 9.32786 21.3324 10.9026C20.9293 9.98519 20.7323 9.2231 20.8013 8.74228ZM21.7058 14.2426C21.9909 14.6774 22.2975 15.1164 22.6225 15.5545C23.0888 16.1831 23.6155 16.8356 24.1726 17.4585C23.5281 17.5357 22.8633 17.6353 22.1984 17.7551C21.7484 17.8361 20.9639 17.989 20.0456 18.2163C20.2493 17.7972 20.4501 17.3628 20.6466 16.9161C21.0372 16.0284 21.3964 15.1201 21.7058 14.2426Z" fill="#A07F5D"/>
</svg>
