<svg width="30" height="30" viewBox="0 0 30 30" fill="none" xmlns="http://www.w3.org/2000/svg">
<path d="M21 7.56708H21.75V6.81708V2.68308V2.03658L21.1106 1.94128C20.6911 1.87876 19.3539 1.75 17.8083 1.75C16.0516 1.75 14.5062 2.35384 13.4067 3.56722C12.3142 4.77287 11.7357 6.49797 11.7357 8.60892V11.5H9H8.25V12.25V16.8715V17.6215H9H11.7357V28.5V29.25H12.4857H16.7594H17.5094V28.5V17.6226H20.1041H20.7728L20.8492 16.9582L21.3801 12.3367L21.4761 11.5011H20.635H17.5084V9.06773C17.5088 8.4223 17.5988 8.07872 17.7391 7.89237C17.8402 7.75806 18.0762 7.56708 18.8092 7.56708H21Z" stroke="#FCFCFC" stroke-width="1.5"/>
</svg>
