<svg width="247" height="37" viewBox="0 0 247 37" fill="none" xmlns="http://www.w3.org/2000/svg">
<path d="M3.5 32.7H19.5V36H2.83122e-07V0.999998H3.5V32.7ZM50.9715 31.35C47.4715 34.85 43.1882 36.6 38.1215 36.6C33.0548 36.6 28.7715 34.85 25.2715 31.35C21.7715 27.8167 20.0215 23.5333 20.0215 18.5C20.0215 13.4667 21.7715 9.2 25.2715 5.7C28.7715 2.16667 33.0548 0.399999 38.1215 0.399999C43.1882 0.399999 47.4715 2.16667 50.9715 5.7C54.4715 9.2 56.2215 13.4667 56.2215 18.5C56.2215 23.5333 54.4715 27.8167 50.9715 31.35ZM27.7215 28.95C30.5215 31.7833 33.9882 33.2 38.1215 33.2C42.2548 33.2 45.7215 31.7833 48.5215 28.95C51.3215 26.0833 52.7215 22.6 52.7215 18.5C52.7215 14.4 51.3215 10.9333 48.5215 8.1C45.7215 5.23333 42.2548 3.8 38.1215 3.8C33.9882 3.8 30.5215 5.23333 27.7215 8.1C24.9215 10.9333 23.5215 14.4 23.5215 18.5C23.5215 22.6 24.9215 26.0833 27.7215 28.95ZM95.657 19.35V21.15C95.657 25.4833 94.107 29.15 91.007 32.15C87.907 35.1167 83.757 36.6 78.557 36.6C73.257 36.6 68.8737 34.85 65.407 31.35C61.9404 27.85 60.207 23.5667 60.207 18.5C60.207 13.4333 61.9404 9.15 65.407 5.65C68.8737 2.15 73.257 0.399999 78.557 0.399999C81.7904 0.399999 84.757 1.18333 87.457 2.75C90.157 4.31667 92.2404 6.4 93.707 9L90.607 10.8C89.507 8.66667 87.8737 6.96667 85.707 5.7C83.5404 4.43333 81.157 3.8 78.557 3.8C74.1904 3.8 70.6237 5.21666 67.857 8.05C65.0904 10.8833 63.707 14.3667 63.707 18.5C63.707 22.6333 65.0904 26.1167 67.857 28.95C70.6237 31.7833 74.1904 33.2 78.557 33.2C82.4904 33.2 85.6404 32.2167 88.007 30.25C90.3737 28.25 91.7237 25.7167 92.057 22.65H78.157V19.35H95.657ZM130.61 31.35C127.11 34.85 122.827 36.6 117.76 36.6C112.693 36.6 108.41 34.85 104.91 31.35C101.41 27.8167 99.6602 23.5333 99.6602 18.5C99.6602 13.4667 101.41 9.2 104.91 5.7C108.41 2.16667 112.693 0.399999 117.76 0.399999C122.827 0.399999 127.11 2.16667 130.61 5.7C134.11 9.2 135.86 13.4667 135.86 18.5C135.86 23.5333 134.11 27.8167 130.61 31.35ZM107.36 28.95C110.16 31.7833 113.627 33.2 117.76 33.2C121.893 33.2 125.36 31.7833 128.16 28.95C130.96 26.0833 132.36 22.6 132.36 18.5C132.36 14.4 130.96 10.9333 128.16 8.1C125.36 5.23333 121.893 3.8 117.76 3.8C113.627 3.8 110.16 5.23333 107.36 8.1C104.56 10.9333 103.16 14.4 103.16 18.5C103.16 22.6 104.56 26.0833 107.36 28.95ZM161.844 0.999998V4.3H151.094V36H147.594V4.3H136.844V0.999998H161.844ZM192.096 0.999998L179.446 21.65V36H175.946V21.55L163.346 0.999998H167.296L177.746 18.15L188.146 0.999998H192.096ZM209.082 0.999998C212.215 0.999998 214.832 2.05 216.932 4.15C219.032 6.25 220.082 8.86667 220.082 12C220.082 15.1333 219.032 17.75 216.932 19.85C214.832 21.95 212.215 23 209.082 23H200.082V36H196.582V0.999998H209.082ZM209.082 19.7C211.249 19.7 213.032 18.9833 214.432 17.55C215.865 16.0833 216.582 14.2333 216.582 12C216.582 9.76666 215.865 7.93333 214.432 6.5C213.032 5.03333 211.249 4.3 209.082 4.3H200.082V19.7H209.082ZM229.574 32.7H246.574V36H226.074V0.999998H246.324V4.3H229.574V16.7H245.074V20H229.574V32.7Z" fill="#FCFCFC"/>
</svg>
